G04 #@! TF.GenerationSoftware,KiCad,Pcbnew,(5.1.0)-1*
G04 #@! TF.CreationDate,2019-06-12T13:49:38+02:00*
G04 #@! TF.ProjectId,me-freeled,6d652d66-7265-4656-9c65-642e6b696361,rev?*
G04 #@! TF.SameCoordinates,Original*
G04 #@! TF.FileFunction,Legend,Bot*
G04 #@! TF.FilePolarity,Positive*
%FSLAX46Y46*%
G04 Gerber Fmt 4.6, Leading zero omitted, Abs format (unit mm)*
G04 Created by KiCad (PCBNEW (5.1.0)-1) date 2019-06-12 13:49:38*
%MOMM*%
%LPD*%
G04 APERTURE LIST*
%ADD10C,0.150000*%
%ADD11C,0.200000*%
G04 APERTURE END LIST*
D10*
X48703333Y-83272380D02*
X48370000Y-84272380D01*
X48036666Y-83272380D01*
X47322380Y-84224761D02*
X47417619Y-84272380D01*
X47608095Y-84272380D01*
X47703333Y-84224761D01*
X47750952Y-84129523D01*
X47750952Y-83748571D01*
X47703333Y-83653333D01*
X47608095Y-83605714D01*
X47417619Y-83605714D01*
X47322380Y-83653333D01*
X47274761Y-83748571D01*
X47274761Y-83843809D01*
X47750952Y-83939047D01*
X46846190Y-84272380D02*
X46846190Y-83605714D01*
X46846190Y-83796190D02*
X46798571Y-83700952D01*
X46750952Y-83653333D01*
X46655714Y-83605714D01*
X46560476Y-83605714D01*
X46274761Y-84224761D02*
X46179523Y-84272380D01*
X45989047Y-84272380D01*
X45893809Y-84224761D01*
X45846190Y-84129523D01*
X45846190Y-84081904D01*
X45893809Y-83986666D01*
X45989047Y-83939047D01*
X46131904Y-83939047D01*
X46227142Y-83891428D01*
X46274761Y-83796190D01*
X46274761Y-83748571D01*
X46227142Y-83653333D01*
X46131904Y-83605714D01*
X45989047Y-83605714D01*
X45893809Y-83653333D01*
X45417619Y-84272380D02*
X45417619Y-83605714D01*
X45417619Y-83272380D02*
X45465238Y-83320000D01*
X45417619Y-83367619D01*
X45370000Y-83320000D01*
X45417619Y-83272380D01*
X45417619Y-83367619D01*
X44798571Y-84272380D02*
X44893809Y-84224761D01*
X44941428Y-84177142D01*
X44989047Y-84081904D01*
X44989047Y-83796190D01*
X44941428Y-83700952D01*
X44893809Y-83653333D01*
X44798571Y-83605714D01*
X44655714Y-83605714D01*
X44560476Y-83653333D01*
X44512857Y-83700952D01*
X44465238Y-83796190D01*
X44465238Y-84081904D01*
X44512857Y-84177142D01*
X44560476Y-84224761D01*
X44655714Y-84272380D01*
X44798571Y-84272380D01*
X44036666Y-83605714D02*
X44036666Y-84272380D01*
X44036666Y-83700952D02*
X43989047Y-83653333D01*
X43893809Y-83605714D01*
X43750952Y-83605714D01*
X43655714Y-83653333D01*
X43608095Y-83748571D01*
X43608095Y-84272380D01*
X42417619Y-83367619D02*
X42370000Y-83320000D01*
X42274761Y-83272380D01*
X42036666Y-83272380D01*
X41941428Y-83320000D01*
X41893809Y-83367619D01*
X41846190Y-83462857D01*
X41846190Y-83558095D01*
X41893809Y-83700952D01*
X42465238Y-84272380D01*
X41846190Y-84272380D01*
X41417619Y-84177142D02*
X41370000Y-84224761D01*
X41417619Y-84272380D01*
X41465238Y-84224761D01*
X41417619Y-84177142D01*
X41417619Y-84272380D01*
X40750952Y-83272380D02*
X40655714Y-83272380D01*
X40560476Y-83320000D01*
X40512857Y-83367619D01*
X40465238Y-83462857D01*
X40417619Y-83653333D01*
X40417619Y-83891428D01*
X40465238Y-84081904D01*
X40512857Y-84177142D01*
X40560476Y-84224761D01*
X40655714Y-84272380D01*
X40750952Y-84272380D01*
X40846190Y-84224761D01*
X40893809Y-84177142D01*
X40941428Y-84081904D01*
X40989047Y-83891428D01*
X40989047Y-83653333D01*
X40941428Y-83462857D01*
X40893809Y-83367619D01*
X40846190Y-83320000D01*
X40750952Y-83272380D01*
X39227142Y-83891428D02*
X38465238Y-83891428D01*
X36274761Y-83272380D02*
X36179523Y-83272380D01*
X36084285Y-83320000D01*
X36036666Y-83367619D01*
X35989047Y-83462857D01*
X35941428Y-83653333D01*
X35941428Y-83891428D01*
X35989047Y-84081904D01*
X36036666Y-84177142D01*
X36084285Y-84224761D01*
X36179523Y-84272380D01*
X36274761Y-84272380D01*
X36370000Y-84224761D01*
X36417619Y-84177142D01*
X36465238Y-84081904D01*
X36512857Y-83891428D01*
X36512857Y-83653333D01*
X36465238Y-83462857D01*
X36417619Y-83367619D01*
X36370000Y-83320000D01*
X36274761Y-83272380D01*
X35084285Y-83272380D02*
X35274761Y-83272380D01*
X35370000Y-83320000D01*
X35417619Y-83367619D01*
X35512857Y-83510476D01*
X35560476Y-83700952D01*
X35560476Y-84081904D01*
X35512857Y-84177142D01*
X35465238Y-84224761D01*
X35370000Y-84272380D01*
X35179523Y-84272380D01*
X35084285Y-84224761D01*
X35036666Y-84177142D01*
X34989047Y-84081904D01*
X34989047Y-83843809D01*
X35036666Y-83748571D01*
X35084285Y-83700952D01*
X35179523Y-83653333D01*
X35370000Y-83653333D01*
X35465238Y-83700952D01*
X35512857Y-83748571D01*
X35560476Y-83843809D01*
X33846190Y-83224761D02*
X34703333Y-84510476D01*
X33560476Y-83367619D02*
X33512857Y-83320000D01*
X33417619Y-83272380D01*
X33179523Y-83272380D01*
X33084285Y-83320000D01*
X33036666Y-83367619D01*
X32989047Y-83462857D01*
X32989047Y-83558095D01*
X33036666Y-83700952D01*
X33608095Y-84272380D01*
X32989047Y-84272380D01*
X32370000Y-83272380D02*
X32274761Y-83272380D01*
X32179523Y-83320000D01*
X32131904Y-83367619D01*
X32084285Y-83462857D01*
X32036666Y-83653333D01*
X32036666Y-83891428D01*
X32084285Y-84081904D01*
X32131904Y-84177142D01*
X32179523Y-84224761D01*
X32274761Y-84272380D01*
X32370000Y-84272380D01*
X32465238Y-84224761D01*
X32512857Y-84177142D01*
X32560476Y-84081904D01*
X32608095Y-83891428D01*
X32608095Y-83653333D01*
X32560476Y-83462857D01*
X32512857Y-83367619D01*
X32465238Y-83320000D01*
X32370000Y-83272380D01*
X31084285Y-84272380D02*
X31655714Y-84272380D01*
X31370000Y-84272380D02*
X31370000Y-83272380D01*
X31465238Y-83415238D01*
X31560476Y-83510476D01*
X31655714Y-83558095D01*
X30608095Y-84272380D02*
X30417619Y-84272380D01*
X30322380Y-84224761D01*
X30274761Y-84177142D01*
X30179523Y-84034285D01*
X30131904Y-83843809D01*
X30131904Y-83462857D01*
X30179523Y-83367619D01*
X30227142Y-83320000D01*
X30322380Y-83272380D01*
X30512857Y-83272380D01*
X30608095Y-83320000D01*
X30655714Y-83367619D01*
X30703333Y-83462857D01*
X30703333Y-83700952D01*
X30655714Y-83796190D01*
X30608095Y-83843809D01*
X30512857Y-83891428D01*
X30322380Y-83891428D01*
X30227142Y-83843809D01*
X30179523Y-83796190D01*
X30131904Y-83700952D01*
D11*
X50798571Y-74383571D02*
X51512857Y-74383571D01*
X51512857Y-72883571D01*
X50298571Y-73597857D02*
X49798571Y-73597857D01*
X49584285Y-74383571D02*
X50298571Y-74383571D01*
X50298571Y-72883571D01*
X49584285Y-72883571D01*
X48941428Y-74383571D02*
X48941428Y-72883571D01*
X48584285Y-72883571D01*
X48370000Y-72955000D01*
X48227142Y-73097857D01*
X48155714Y-73240714D01*
X48084285Y-73526428D01*
X48084285Y-73740714D01*
X48155714Y-74026428D01*
X48227142Y-74169285D01*
X48370000Y-74312142D01*
X48584285Y-74383571D01*
X48941428Y-74383571D01*
X46298571Y-74383571D02*
X46298571Y-72883571D01*
X45798571Y-73955000D01*
X45298571Y-72883571D01*
X45298571Y-74383571D01*
X44584285Y-73597857D02*
X44084285Y-73597857D01*
X43870000Y-74383571D02*
X44584285Y-74383571D01*
X44584285Y-72883571D01*
X43870000Y-72883571D01*
X43227142Y-74383571D02*
X43227142Y-72883571D01*
X42870000Y-72883571D01*
X42655714Y-72955000D01*
X42512857Y-73097857D01*
X42441428Y-73240714D01*
X42370000Y-73526428D01*
X42370000Y-73740714D01*
X42441428Y-74026428D01*
X42512857Y-74169285D01*
X42655714Y-74312142D01*
X42870000Y-74383571D01*
X43227142Y-74383571D01*
X41727142Y-74383571D02*
X41727142Y-72883571D01*
X40155714Y-74240714D02*
X40227142Y-74312142D01*
X40441428Y-74383571D01*
X40584285Y-74383571D01*
X40798571Y-74312142D01*
X40941428Y-74169285D01*
X41012857Y-74026428D01*
X41084285Y-73740714D01*
X41084285Y-73526428D01*
X41012857Y-73240714D01*
X40941428Y-73097857D01*
X40798571Y-72955000D01*
X40584285Y-72883571D01*
X40441428Y-72883571D01*
X40227142Y-72955000D01*
X40155714Y-73026428D01*
X39584285Y-73955000D02*
X38870000Y-73955000D01*
X39727142Y-74383571D02*
X39227142Y-72883571D01*
X38727142Y-74383571D01*
X37512857Y-74383571D02*
X38227142Y-74383571D01*
X38227142Y-72883571D01*
X37012857Y-73597857D02*
X36512857Y-73597857D01*
X36298571Y-74383571D02*
X37012857Y-74383571D01*
X37012857Y-72883571D01*
X36298571Y-72883571D01*
X35727142Y-74312142D02*
X35512857Y-74383571D01*
X35155714Y-74383571D01*
X35012857Y-74312142D01*
X34941428Y-74240714D01*
X34870000Y-74097857D01*
X34870000Y-73955000D01*
X34941428Y-73812142D01*
X35012857Y-73740714D01*
X35155714Y-73669285D01*
X35441428Y-73597857D01*
X35584285Y-73526428D01*
X35655714Y-73455000D01*
X35727142Y-73312142D01*
X35727142Y-73169285D01*
X35655714Y-73026428D01*
X35584285Y-72955000D01*
X35441428Y-72883571D01*
X35084285Y-72883571D01*
X34870000Y-72955000D01*
X32655714Y-74955000D02*
X32727142Y-74883571D01*
X32870000Y-74669285D01*
X32941428Y-74526428D01*
X33012857Y-74312142D01*
X33084285Y-73955000D01*
X33084285Y-73669285D01*
X33012857Y-73312142D01*
X32941428Y-73097857D01*
X32870000Y-72955000D01*
X32727142Y-72740714D01*
X32655714Y-72669285D01*
X32084285Y-74383571D02*
X32084285Y-72883571D01*
X31512857Y-72883571D01*
X31370000Y-72955000D01*
X31298571Y-73026428D01*
X31227142Y-73169285D01*
X31227142Y-73383571D01*
X31298571Y-73526428D01*
X31370000Y-73597857D01*
X31512857Y-73669285D01*
X32084285Y-73669285D01*
X30298571Y-72883571D02*
X30012857Y-72883571D01*
X29870000Y-72955000D01*
X29727142Y-73097857D01*
X29655714Y-73383571D01*
X29655714Y-73883571D01*
X29727142Y-74169285D01*
X29870000Y-74312142D01*
X30012857Y-74383571D01*
X30298571Y-74383571D01*
X30441428Y-74312142D01*
X30584285Y-74169285D01*
X30655714Y-73883571D01*
X30655714Y-73383571D01*
X30584285Y-73097857D01*
X30441428Y-72955000D01*
X30298571Y-72883571D01*
X28155714Y-74240714D02*
X28227142Y-74312142D01*
X28441428Y-74383571D01*
X28584285Y-74383571D01*
X28798571Y-74312142D01*
X28941428Y-74169285D01*
X29012857Y-74026428D01*
X29084285Y-73740714D01*
X29084285Y-73526428D01*
X29012857Y-73240714D01*
X28941428Y-73097857D01*
X28798571Y-72955000D01*
X28584285Y-72883571D01*
X28441428Y-72883571D01*
X28227142Y-72955000D01*
X28155714Y-73026428D01*
X27655714Y-74955000D02*
X27584285Y-74883571D01*
X27441428Y-74669285D01*
X27370000Y-74526428D01*
X27298571Y-74312142D01*
X27227142Y-73955000D01*
X27227142Y-73669285D01*
X27298571Y-73312142D01*
X27370000Y-73097857D01*
X27441428Y-72955000D01*
X27584285Y-72740714D01*
X27655714Y-72669285D01*
X49155714Y-76833571D02*
X49155714Y-75333571D01*
X48798571Y-75333571D01*
X48584285Y-75405000D01*
X48441428Y-75547857D01*
X48370000Y-75690714D01*
X48298571Y-75976428D01*
X48298571Y-76190714D01*
X48370000Y-76476428D01*
X48441428Y-76619285D01*
X48584285Y-76762142D01*
X48798571Y-76833571D01*
X49155714Y-76833571D01*
X47655714Y-76833571D02*
X47655714Y-75833571D01*
X47655714Y-76119285D02*
X47584285Y-75976428D01*
X47512857Y-75905000D01*
X47370000Y-75833571D01*
X47227142Y-75833571D01*
X44727142Y-76690714D02*
X44798571Y-76762142D01*
X45012857Y-76833571D01*
X45155714Y-76833571D01*
X45370000Y-76762142D01*
X45512857Y-76619285D01*
X45584285Y-76476428D01*
X45655714Y-76190714D01*
X45655714Y-75976428D01*
X45584285Y-75690714D01*
X45512857Y-75547857D01*
X45370000Y-75405000D01*
X45155714Y-75333571D01*
X45012857Y-75333571D01*
X44798571Y-75405000D01*
X44727142Y-75476428D01*
X44155714Y-76405000D02*
X43441428Y-76405000D01*
X44298571Y-76833571D02*
X43798571Y-75333571D01*
X43298571Y-76833571D01*
X42798571Y-76833571D02*
X42798571Y-75333571D01*
X42441428Y-75333571D01*
X42227142Y-75405000D01*
X42084285Y-75547857D01*
X42012857Y-75690714D01*
X41941428Y-75976428D01*
X41941428Y-76190714D01*
X42012857Y-76476428D01*
X42084285Y-76619285D01*
X42227142Y-76762142D01*
X42441428Y-76833571D01*
X42798571Y-76833571D01*
X41298571Y-76833571D02*
X41298571Y-75333571D01*
X39727142Y-76690714D02*
X39798571Y-76762142D01*
X40012857Y-76833571D01*
X40155714Y-76833571D01*
X40370000Y-76762142D01*
X40512857Y-76619285D01*
X40584285Y-76476428D01*
X40655714Y-76190714D01*
X40655714Y-75976428D01*
X40584285Y-75690714D01*
X40512857Y-75547857D01*
X40370000Y-75405000D01*
X40155714Y-75333571D01*
X40012857Y-75333571D01*
X39798571Y-75405000D01*
X39727142Y-75476428D01*
X37941428Y-76833571D02*
X37941428Y-75333571D01*
X37370000Y-75333571D01*
X37227142Y-75405000D01*
X37155714Y-75476428D01*
X37084285Y-75619285D01*
X37084285Y-75833571D01*
X37155714Y-75976428D01*
X37227142Y-76047857D01*
X37370000Y-76119285D01*
X37941428Y-76119285D01*
X36441428Y-76833571D02*
X36441428Y-75333571D01*
X35798571Y-76833571D02*
X35798571Y-76047857D01*
X35870000Y-75905000D01*
X36012857Y-75833571D01*
X36227142Y-75833571D01*
X36370000Y-75905000D01*
X36441428Y-75976428D01*
X35084285Y-76833571D02*
X35084285Y-75833571D01*
X35084285Y-75333571D02*
X35155714Y-75405000D01*
X35084285Y-75476428D01*
X35012857Y-75405000D01*
X35084285Y-75333571D01*
X35084285Y-75476428D01*
X34155714Y-76833571D02*
X34298571Y-76762142D01*
X34370000Y-76619285D01*
X34370000Y-75333571D01*
X33584285Y-76833571D02*
X33584285Y-75833571D01*
X33584285Y-75333571D02*
X33655714Y-75405000D01*
X33584285Y-75476428D01*
X33512857Y-75405000D01*
X33584285Y-75333571D01*
X33584285Y-75476428D01*
X32870000Y-75833571D02*
X32870000Y-77333571D01*
X32870000Y-75905000D02*
X32727142Y-75833571D01*
X32441428Y-75833571D01*
X32298571Y-75905000D01*
X32227142Y-75976428D01*
X32155714Y-76119285D01*
X32155714Y-76547857D01*
X32227142Y-76690714D01*
X32298571Y-76762142D01*
X32441428Y-76833571D01*
X32727142Y-76833571D01*
X32870000Y-76762142D01*
X31512857Y-75833571D02*
X31512857Y-77333571D01*
X31512857Y-75905000D02*
X31370000Y-75833571D01*
X31084285Y-75833571D01*
X30941428Y-75905000D01*
X30870000Y-75976428D01*
X30798571Y-76119285D01*
X30798571Y-76547857D01*
X30870000Y-76690714D01*
X30941428Y-76762142D01*
X31084285Y-76833571D01*
X31370000Y-76833571D01*
X31512857Y-76762142D01*
X29584285Y-76762142D02*
X29727142Y-76833571D01*
X30012857Y-76833571D01*
X30155714Y-76762142D01*
X30227142Y-76619285D01*
X30227142Y-76047857D01*
X30155714Y-75905000D01*
X30012857Y-75833571D01*
X29727142Y-75833571D01*
X29584285Y-75905000D01*
X29512857Y-76047857D01*
X29512857Y-76190714D01*
X30227142Y-76333571D01*
M02*
