G04 #@! TF.GenerationSoftware,KiCad,Pcbnew,(5.1.0)-1*
G04 #@! TF.CreationDate,2019-06-12T13:49:38+02:00*
G04 #@! TF.ProjectId,me-freeled,6d652d66-7265-4656-9c65-642e6b696361,rev?*
G04 #@! TF.SameCoordinates,Original*
G04 #@! TF.FileFunction,Legend,Top*
G04 #@! TF.FilePolarity,Positive*
%FSLAX46Y46*%
G04 Gerber Fmt 4.6, Leading zero omitted, Abs format (unit mm)*
G04 Created by KiCad (PCBNEW (5.1.0)-1) date 2019-06-12 13:49:38*
%MOMM*%
%LPD*%
G04 APERTURE LIST*
%ADD10C,0.100000*%
%ADD11C,0.150000*%
%ADD12C,0.120000*%
%ADD13C,0.127000*%
%ADD14C,0.200000*%
%ADD15C,0.050000*%
G04 APERTURE END LIST*
D10*
X74264000Y-56497666D02*
X74297333Y-56431000D01*
X74297333Y-56331000D01*
X74264000Y-56231000D01*
X74197333Y-56164333D01*
X74130666Y-56131000D01*
X73997333Y-56097666D01*
X73897333Y-56097666D01*
X73764000Y-56131000D01*
X73697333Y-56164333D01*
X73630666Y-56231000D01*
X73597333Y-56331000D01*
X73597333Y-56397666D01*
X73630666Y-56497666D01*
X73664000Y-56531000D01*
X73897333Y-56531000D01*
X73897333Y-56397666D01*
X73597333Y-56831000D02*
X74297333Y-56831000D01*
X74297333Y-57097666D01*
X74264000Y-57164333D01*
X74230666Y-57197666D01*
X74164000Y-57231000D01*
X74064000Y-57231000D01*
X73997333Y-57197666D01*
X73964000Y-57164333D01*
X73930666Y-57097666D01*
X73930666Y-56831000D01*
X73597333Y-57531000D02*
X74297333Y-57531000D01*
X74297333Y-57997666D02*
X74297333Y-58131000D01*
X74264000Y-58197666D01*
X74197333Y-58264333D01*
X74064000Y-58297666D01*
X73830666Y-58297666D01*
X73697333Y-58264333D01*
X73630666Y-58197666D01*
X73597333Y-58131000D01*
X73597333Y-57997666D01*
X73630666Y-57931000D01*
X73697333Y-57864333D01*
X73830666Y-57831000D01*
X74064000Y-57831000D01*
X74197333Y-57864333D01*
X74264000Y-57931000D01*
X74297333Y-57997666D01*
X74064000Y-58897666D02*
X73597333Y-58897666D01*
X74330666Y-58731000D02*
X73830666Y-58564333D01*
X73830666Y-58997666D01*
X58832000Y-59024666D02*
X58798666Y-59091333D01*
X58798666Y-59191333D01*
X58832000Y-59291333D01*
X58898666Y-59358000D01*
X58965333Y-59391333D01*
X59098666Y-59424666D01*
X59198666Y-59424666D01*
X59332000Y-59391333D01*
X59398666Y-59358000D01*
X59465333Y-59291333D01*
X59498666Y-59191333D01*
X59498666Y-59124666D01*
X59465333Y-59024666D01*
X59432000Y-58991333D01*
X59198666Y-58991333D01*
X59198666Y-59124666D01*
X59498666Y-58691333D02*
X58798666Y-58691333D01*
X58798666Y-58424666D01*
X58832000Y-58358000D01*
X58865333Y-58324666D01*
X58932000Y-58291333D01*
X59032000Y-58291333D01*
X59098666Y-58324666D01*
X59132000Y-58358000D01*
X59165333Y-58424666D01*
X59165333Y-58691333D01*
X59498666Y-57991333D02*
X58798666Y-57991333D01*
X58798666Y-57524666D02*
X58798666Y-57391333D01*
X58832000Y-57324666D01*
X58898666Y-57258000D01*
X59032000Y-57224666D01*
X59265333Y-57224666D01*
X59398666Y-57258000D01*
X59465333Y-57324666D01*
X59498666Y-57391333D01*
X59498666Y-57524666D01*
X59465333Y-57591333D01*
X59398666Y-57658000D01*
X59265333Y-57691333D01*
X59032000Y-57691333D01*
X58898666Y-57658000D01*
X58832000Y-57591333D01*
X58798666Y-57524666D01*
X58865333Y-56958000D02*
X58832000Y-56924666D01*
X58798666Y-56858000D01*
X58798666Y-56691333D01*
X58832000Y-56624666D01*
X58865333Y-56591333D01*
X58932000Y-56558000D01*
X58998666Y-56558000D01*
X59098666Y-56591333D01*
X59498666Y-56991333D01*
X59498666Y-56558000D01*
X59498666Y-55891333D02*
X59498666Y-56291333D01*
X59498666Y-56091333D02*
X58798666Y-56091333D01*
X58898666Y-56158000D01*
X58965333Y-56224666D01*
X58998666Y-56291333D01*
D11*
X50165095Y-62873000D02*
X50069857Y-62825380D01*
X49927000Y-62825380D01*
X49784142Y-62873000D01*
X49688904Y-62968238D01*
X49641285Y-63063476D01*
X49593666Y-63253952D01*
X49593666Y-63396809D01*
X49641285Y-63587285D01*
X49688904Y-63682523D01*
X49784142Y-63777761D01*
X49927000Y-63825380D01*
X50022238Y-63825380D01*
X50165095Y-63777761D01*
X50212714Y-63730142D01*
X50212714Y-63396809D01*
X50022238Y-63396809D01*
X50641285Y-63825380D02*
X50641285Y-62825380D01*
X51212714Y-63825380D01*
X51212714Y-62825380D01*
X51688904Y-63825380D02*
X51688904Y-62825380D01*
X51927000Y-62825380D01*
X52069857Y-62873000D01*
X52165095Y-62968238D01*
X52212714Y-63063476D01*
X52260333Y-63253952D01*
X52260333Y-63396809D01*
X52212714Y-63587285D01*
X52165095Y-63682523D01*
X52069857Y-63777761D01*
X51927000Y-63825380D01*
X51688904Y-63825380D01*
X44601000Y-63825380D02*
X44601000Y-62825380D01*
X44839095Y-62825380D01*
X44981952Y-62873000D01*
X45077190Y-62968238D01*
X45124809Y-63063476D01*
X45172428Y-63253952D01*
X45172428Y-63396809D01*
X45124809Y-63587285D01*
X45077190Y-63682523D01*
X44981952Y-63777761D01*
X44839095Y-63825380D01*
X44601000Y-63825380D01*
X45553380Y-63539666D02*
X46029571Y-63539666D01*
X45458142Y-63825380D02*
X45791476Y-62825380D01*
X46124809Y-63825380D01*
X46315285Y-62825380D02*
X46886714Y-62825380D01*
X46601000Y-63825380D02*
X46601000Y-62825380D01*
X47172428Y-63539666D02*
X47648619Y-63539666D01*
X47077190Y-63825380D02*
X47410523Y-62825380D01*
X47743857Y-63825380D01*
X38989047Y-63317428D02*
X39750952Y-63317428D01*
X39370000Y-63698380D02*
X39370000Y-62936476D01*
X40830523Y-62825380D02*
X40354333Y-62825380D01*
X40306714Y-63301571D01*
X40354333Y-63253952D01*
X40449571Y-63206333D01*
X40687666Y-63206333D01*
X40782904Y-63253952D01*
X40830523Y-63301571D01*
X40878142Y-63396809D01*
X40878142Y-63634904D01*
X40830523Y-63730142D01*
X40782904Y-63777761D01*
X40687666Y-63825380D01*
X40449571Y-63825380D01*
X40354333Y-63777761D01*
X40306714Y-63730142D01*
X41163857Y-62825380D02*
X41497190Y-63825380D01*
X41830523Y-62825380D01*
X52324000Y-64516000D02*
X52324000Y-91440000D01*
X25400000Y-64516000D02*
X52324000Y-64516000D01*
X25400000Y-91440000D02*
X25400000Y-64516000D01*
X51935923Y-66040000D02*
G75*
G03X51935923Y-66040000I-1135923J0D01*
G01*
X28059923Y-66040000D02*
G75*
G03X28059923Y-66040000I-1135923J0D01*
G01*
X28059923Y-89916000D02*
G75*
G03X28059923Y-89916000I-1135923J0D01*
G01*
X51935923Y-89916000D02*
G75*
G03X51935923Y-89916000I-1135923J0D01*
G01*
X25400000Y-87376000D02*
X25400000Y-69088000D01*
X52324000Y-87376000D02*
X25400000Y-87376000D01*
X52324000Y-69088000D02*
X52324000Y-87376000D01*
X25400000Y-69088000D02*
X52324000Y-69088000D01*
X26416000Y-81788000D02*
X26416000Y-71120000D01*
X51308000Y-81788000D02*
X26416000Y-81788000D01*
X51308000Y-71120000D02*
X51308000Y-81788000D01*
X26416000Y-71120000D02*
X51308000Y-71120000D01*
X46736000Y-90424000D02*
X46736000Y-91440000D01*
X30480000Y-90424000D02*
X46736000Y-90424000D01*
X30480000Y-91440000D02*
X30480000Y-90424000D01*
X25400000Y-91440000D02*
X30480000Y-91440000D01*
X46736000Y-91440000D02*
X52324000Y-91440000D01*
D12*
X34900000Y-95220000D02*
X34900000Y-97820000D01*
X28600000Y-99970000D02*
X28600000Y-99720000D01*
X34900000Y-99970000D02*
X28600000Y-99970000D01*
X34900000Y-99720000D02*
X34900000Y-99970000D01*
X28600000Y-97820000D02*
X28600000Y-95220000D01*
X34900000Y-93070000D02*
X34900000Y-93320000D01*
X28600000Y-93070000D02*
X34900000Y-93070000D01*
X28600000Y-93320000D02*
X28600000Y-93070000D01*
X43840000Y-93320000D02*
X43840000Y-93070000D01*
X43840000Y-93070000D02*
X50140000Y-93070000D01*
X50140000Y-93070000D02*
X50140000Y-93320000D01*
X43840000Y-97820000D02*
X43840000Y-95220000D01*
X50140000Y-99720000D02*
X50140000Y-99970000D01*
X50140000Y-99970000D02*
X43840000Y-99970000D01*
X43840000Y-99970000D02*
X43840000Y-99720000D01*
X50140000Y-95220000D02*
X50140000Y-97820000D01*
X50140000Y-107920000D02*
X50140000Y-110520000D01*
X43840000Y-112670000D02*
X43840000Y-112420000D01*
X50140000Y-112670000D02*
X43840000Y-112670000D01*
X50140000Y-112420000D02*
X50140000Y-112670000D01*
X43840000Y-110520000D02*
X43840000Y-107920000D01*
X50140000Y-105770000D02*
X50140000Y-106020000D01*
X43840000Y-105770000D02*
X50140000Y-105770000D01*
X43840000Y-106020000D02*
X43840000Y-105770000D01*
X28600000Y-106020000D02*
X28600000Y-105770000D01*
X28600000Y-105770000D02*
X34900000Y-105770000D01*
X34900000Y-105770000D02*
X34900000Y-106020000D01*
X28600000Y-110520000D02*
X28600000Y-107920000D01*
X34900000Y-112420000D02*
X34900000Y-112670000D01*
X34900000Y-112670000D02*
X28600000Y-112670000D01*
X28600000Y-112670000D02*
X28600000Y-112420000D01*
X34900000Y-107920000D02*
X34900000Y-110520000D01*
D11*
X77470000Y-64770000D02*
G75*
G03X76835000Y-64135000I-635000J0D01*
G01*
X55245000Y-64135000D02*
G75*
G03X54610000Y-64770000I0J-635000D01*
G01*
X76835000Y-64135000D02*
X55245000Y-64135000D01*
X77470000Y-80010000D02*
X71120000Y-80010000D01*
X71120000Y-80010000D02*
X71120000Y-69850000D01*
X71120000Y-69850000D02*
X77470000Y-69850000D01*
X72390000Y-110490000D02*
X72390000Y-99060000D01*
X72390000Y-99060000D02*
X59690000Y-99060000D01*
X59690000Y-99060000D02*
X59690000Y-110490000D01*
X72390000Y-115570000D02*
X72390000Y-110490000D01*
X72390000Y-110490000D02*
X59690000Y-110490000D01*
X59690000Y-110490000D02*
X59690000Y-115570000D01*
X58946051Y-66675000D02*
G75*
G03X58946051Y-66675000I-1796051J0D01*
G01*
X76726051Y-66675000D02*
G75*
G03X76726051Y-66675000I-1796051J0D01*
G01*
X76200000Y-113030000D02*
G75*
G03X76200000Y-113030000I-1270000J0D01*
G01*
X58420000Y-113030000D02*
G75*
G03X58420000Y-113030000I-1270000J0D01*
G01*
X54610000Y-114300000D02*
G75*
G03X55880000Y-115570000I1270000J0D01*
G01*
X76200000Y-115570000D02*
G75*
G03X77470000Y-114300000I0J1270000D01*
G01*
X76200000Y-115570000D02*
X55880000Y-115570000D01*
X77470000Y-114300000D02*
X77470000Y-64770000D01*
X54610000Y-64770000D02*
X54610000Y-114300000D01*
D12*
X64310000Y-91640000D02*
X66310000Y-91640000D01*
X66310000Y-93780000D02*
X64310000Y-93780000D01*
X64310000Y-84020000D02*
X66310000Y-84020000D01*
X66310000Y-86160000D02*
X64310000Y-86160000D01*
X35825000Y-53947000D02*
X35825000Y-56547000D01*
X21125000Y-53947000D02*
X35825000Y-53947000D01*
X35825000Y-63147000D02*
X33925000Y-63147000D01*
X35825000Y-60447000D02*
X35825000Y-63147000D01*
X21125000Y-63147000D02*
X21125000Y-53947000D01*
X29925000Y-63147000D02*
X21125000Y-63147000D01*
X70931500Y-87129500D02*
X72391500Y-87129500D01*
X70931500Y-90289500D02*
X73091500Y-90289500D01*
X70931500Y-90289500D02*
X70931500Y-89359500D01*
X70931500Y-87129500D02*
X70931500Y-88059500D01*
X58683500Y-77803500D02*
X58683500Y-75803500D01*
X60823500Y-75803500D02*
X60823500Y-77803500D01*
X65605000Y-71453000D02*
X65605000Y-69453000D01*
X67745000Y-69453000D02*
X67745000Y-71453000D01*
X62087000Y-56588000D02*
X64087000Y-56588000D01*
X64087000Y-58728000D02*
X62087000Y-58728000D01*
X69009000Y-56588000D02*
X71009000Y-56588000D01*
X71009000Y-58728000D02*
X69009000Y-58728000D01*
X38354000Y-61722000D02*
X53594000Y-61722000D01*
X38354000Y-54102000D02*
X53594000Y-54102000D01*
X38354000Y-60452000D02*
X53594000Y-60452000D01*
X53594000Y-61722000D02*
X53594000Y-54102000D01*
X38354000Y-61722000D02*
X38354000Y-54102000D01*
D13*
X98645000Y-106209000D02*
X98645000Y-90209000D01*
X98645000Y-79209000D02*
X98645000Y-63209000D01*
X84845000Y-62209000D02*
X84845000Y-63209000D01*
X84845000Y-63209000D02*
X84845000Y-79209000D01*
X84845000Y-79209000D02*
X84845000Y-90209000D01*
X84845000Y-90209000D02*
X84845000Y-106209000D01*
X84845000Y-106209000D02*
X84845000Y-107209000D01*
X84845000Y-107209000D02*
X83645000Y-107209000D01*
X83645000Y-107209000D02*
X83645000Y-62209000D01*
X83645000Y-62209000D02*
X84845000Y-62209000D01*
X84845000Y-106209000D02*
X98645000Y-106209000D01*
X84845000Y-63209000D02*
X98645000Y-63209000D01*
X84845000Y-90209000D02*
X98645000Y-90209000D01*
X84845000Y-79209000D02*
X98645000Y-79209000D01*
D11*
X33257142Y-67340000D02*
X33161904Y-67292380D01*
X33019047Y-67292380D01*
X32876190Y-67340000D01*
X32780952Y-67435238D01*
X32733333Y-67530476D01*
X32685714Y-67720952D01*
X32685714Y-67863809D01*
X32733333Y-68054285D01*
X32780952Y-68149523D01*
X32876190Y-68244761D01*
X33019047Y-68292380D01*
X33114285Y-68292380D01*
X33257142Y-68244761D01*
X33304761Y-68197142D01*
X33304761Y-67863809D01*
X33114285Y-67863809D01*
X33733333Y-67625714D02*
X33733333Y-68292380D01*
X33733333Y-67720952D02*
X33780952Y-67673333D01*
X33876190Y-67625714D01*
X34019047Y-67625714D01*
X34114285Y-67673333D01*
X34161904Y-67768571D01*
X34161904Y-68292380D01*
X35066666Y-68292380D02*
X35066666Y-67292380D01*
X35066666Y-68244761D02*
X34971428Y-68292380D01*
X34780952Y-68292380D01*
X34685714Y-68244761D01*
X34638095Y-68197142D01*
X34590476Y-68101904D01*
X34590476Y-67816190D01*
X34638095Y-67720952D01*
X34685714Y-67673333D01*
X34780952Y-67625714D01*
X34971428Y-67625714D01*
X35066666Y-67673333D01*
X36109523Y-67292380D02*
X36442857Y-68292380D01*
X36776190Y-67292380D01*
X37538095Y-68244761D02*
X37442857Y-68292380D01*
X37252380Y-68292380D01*
X37157142Y-68244761D01*
X37109523Y-68197142D01*
X37061904Y-68101904D01*
X37061904Y-67816190D01*
X37109523Y-67720952D01*
X37157142Y-67673333D01*
X37252380Y-67625714D01*
X37442857Y-67625714D01*
X37538095Y-67673333D01*
X38395238Y-68244761D02*
X38300000Y-68292380D01*
X38109523Y-68292380D01*
X38014285Y-68244761D01*
X37966666Y-68197142D01*
X37919047Y-68101904D01*
X37919047Y-67816190D01*
X37966666Y-67720952D01*
X38014285Y-67673333D01*
X38109523Y-67625714D01*
X38300000Y-67625714D01*
X38395238Y-67673333D01*
X39123809Y-68244761D02*
X39266666Y-68292380D01*
X39504761Y-68292380D01*
X39600000Y-68244761D01*
X39647619Y-68197142D01*
X39695238Y-68101904D01*
X39695238Y-68006666D01*
X39647619Y-67911428D01*
X39600000Y-67863809D01*
X39504761Y-67816190D01*
X39314285Y-67768571D01*
X39219047Y-67720952D01*
X39171428Y-67673333D01*
X39123809Y-67578095D01*
X39123809Y-67482857D01*
X39171428Y-67387619D01*
X39219047Y-67340000D01*
X39314285Y-67292380D01*
X39552380Y-67292380D01*
X39695238Y-67340000D01*
X40552380Y-68244761D02*
X40457142Y-68292380D01*
X40266666Y-68292380D01*
X40171428Y-68244761D01*
X40123809Y-68197142D01*
X40076190Y-68101904D01*
X40076190Y-67816190D01*
X40123809Y-67720952D01*
X40171428Y-67673333D01*
X40266666Y-67625714D01*
X40457142Y-67625714D01*
X40552380Y-67673333D01*
X41123809Y-68292380D02*
X41028571Y-68244761D01*
X40980952Y-68149523D01*
X40980952Y-67292380D01*
X41909523Y-68244761D02*
X42052380Y-68292380D01*
X42290476Y-68292380D01*
X42385714Y-68244761D01*
X42433333Y-68197142D01*
X42480952Y-68101904D01*
X42480952Y-68006666D01*
X42433333Y-67911428D01*
X42385714Y-67863809D01*
X42290476Y-67816190D01*
X42100000Y-67768571D01*
X42004761Y-67720952D01*
X41957142Y-67673333D01*
X41909523Y-67578095D01*
X41909523Y-67482857D01*
X41957142Y-67387619D01*
X42004761Y-67340000D01*
X42100000Y-67292380D01*
X42338095Y-67292380D01*
X42480952Y-67340000D01*
X43338095Y-68292380D02*
X43338095Y-67292380D01*
X43338095Y-68244761D02*
X43242857Y-68292380D01*
X43052380Y-68292380D01*
X42957142Y-68244761D01*
X42909523Y-68197142D01*
X42861904Y-68101904D01*
X42861904Y-67816190D01*
X42909523Y-67720952D01*
X42957142Y-67673333D01*
X43052380Y-67625714D01*
X43242857Y-67625714D01*
X43338095Y-67673333D01*
X44242857Y-68292380D02*
X44242857Y-67768571D01*
X44195238Y-67673333D01*
X44100000Y-67625714D01*
X43909523Y-67625714D01*
X43814285Y-67673333D01*
X44242857Y-68244761D02*
X44147619Y-68292380D01*
X43909523Y-68292380D01*
X43814285Y-68244761D01*
X43766666Y-68149523D01*
X43766666Y-68054285D01*
X43814285Y-67959047D01*
X43909523Y-67911428D01*
X44147619Y-67911428D01*
X44242857Y-67863809D01*
D14*
X30988095Y-101162857D02*
X32511904Y-101162857D01*
X31750000Y-101924761D02*
X31750000Y-100400952D01*
X46228095Y-101162857D02*
X47751904Y-101162857D01*
D11*
X46394761Y-113172380D02*
X46585238Y-113172380D01*
X46680476Y-113220000D01*
X46775714Y-113315238D01*
X46823333Y-113505714D01*
X46823333Y-113839047D01*
X46775714Y-114029523D01*
X46680476Y-114124761D01*
X46585238Y-114172380D01*
X46394761Y-114172380D01*
X46299523Y-114124761D01*
X46204285Y-114029523D01*
X46156666Y-113839047D01*
X46156666Y-113505714D01*
X46204285Y-113315238D01*
X46299523Y-113220000D01*
X46394761Y-113172380D01*
X47251904Y-114172380D02*
X47251904Y-113172380D01*
X47823333Y-114172380D02*
X47394761Y-113600952D01*
X47823333Y-113172380D02*
X47251904Y-113743809D01*
X29916666Y-114172380D02*
X29916666Y-113172380D01*
X30250000Y-113886666D01*
X30583333Y-113172380D01*
X30583333Y-114172380D01*
X31059523Y-113648571D02*
X31392857Y-113648571D01*
X31535714Y-114172380D02*
X31059523Y-114172380D01*
X31059523Y-113172380D01*
X31535714Y-113172380D01*
X31964285Y-114172380D02*
X31964285Y-113172380D01*
X32535714Y-114172380D01*
X32535714Y-113172380D01*
X33011904Y-113172380D02*
X33011904Y-113981904D01*
X33059523Y-114077142D01*
X33107142Y-114124761D01*
X33202380Y-114172380D01*
X33392857Y-114172380D01*
X33488095Y-114124761D01*
X33535714Y-114077142D01*
X33583333Y-113981904D01*
X33583333Y-113172380D01*
X67818095Y-106132380D02*
X67818095Y-106941904D01*
X67865714Y-107037142D01*
X67913333Y-107084761D01*
X68008571Y-107132380D01*
X68199047Y-107132380D01*
X68294285Y-107084761D01*
X68341904Y-107037142D01*
X68389523Y-106941904D01*
X68389523Y-106132380D01*
X69389523Y-107132380D02*
X68818095Y-107132380D01*
X69103809Y-107132380D02*
X69103809Y-106132380D01*
X69008571Y-106275238D01*
X68913333Y-106370476D01*
X68818095Y-106418095D01*
X61349523Y-108672380D02*
X61920952Y-108672380D01*
X61635238Y-109672380D02*
X61635238Y-108672380D01*
X62111428Y-108672380D02*
X62682857Y-108672380D01*
X62397142Y-109672380D02*
X62397142Y-108672380D01*
X63540000Y-108720000D02*
X63444761Y-108672380D01*
X63301904Y-108672380D01*
X63159047Y-108720000D01*
X63063809Y-108815238D01*
X63016190Y-108910476D01*
X62968571Y-109100952D01*
X62968571Y-109243809D01*
X63016190Y-109434285D01*
X63063809Y-109529523D01*
X63159047Y-109624761D01*
X63301904Y-109672380D01*
X63397142Y-109672380D01*
X63540000Y-109624761D01*
X63587619Y-109577142D01*
X63587619Y-109243809D01*
X63397142Y-109243809D01*
X64206666Y-108672380D02*
X64397142Y-108672380D01*
X64492380Y-108720000D01*
X64587619Y-108815238D01*
X64635238Y-109005714D01*
X64635238Y-109339047D01*
X64587619Y-109529523D01*
X64492380Y-109624761D01*
X64397142Y-109672380D01*
X64206666Y-109672380D01*
X64111428Y-109624761D01*
X64016190Y-109529523D01*
X63968571Y-109339047D01*
X63968571Y-109005714D01*
X64016190Y-108815238D01*
X64111428Y-108720000D01*
X64206666Y-108672380D01*
X65063809Y-109291428D02*
X65825714Y-109291428D01*
X66301904Y-109148571D02*
X66635238Y-109148571D01*
X66778095Y-109672380D02*
X66301904Y-109672380D01*
X66301904Y-108672380D01*
X66778095Y-108672380D01*
X67159047Y-109624761D02*
X67301904Y-109672380D01*
X67540000Y-109672380D01*
X67635238Y-109624761D01*
X67682857Y-109577142D01*
X67730476Y-109481904D01*
X67730476Y-109386666D01*
X67682857Y-109291428D01*
X67635238Y-109243809D01*
X67540000Y-109196190D01*
X67349523Y-109148571D01*
X67254285Y-109100952D01*
X67206666Y-109053333D01*
X67159047Y-108958095D01*
X67159047Y-108862857D01*
X67206666Y-108767619D01*
X67254285Y-108720000D01*
X67349523Y-108672380D01*
X67587619Y-108672380D01*
X67730476Y-108720000D01*
X68159047Y-109672380D02*
X68159047Y-108672380D01*
X68540000Y-108672380D01*
X68635238Y-108720000D01*
X68682857Y-108767619D01*
X68730476Y-108862857D01*
X68730476Y-109005714D01*
X68682857Y-109100952D01*
X68635238Y-109148571D01*
X68540000Y-109196190D01*
X68159047Y-109196190D01*
X69063809Y-108672380D02*
X69682857Y-108672380D01*
X69349523Y-109053333D01*
X69492380Y-109053333D01*
X69587619Y-109100952D01*
X69635238Y-109148571D01*
X69682857Y-109243809D01*
X69682857Y-109481904D01*
X69635238Y-109577142D01*
X69587619Y-109624761D01*
X69492380Y-109672380D01*
X69206666Y-109672380D01*
X69111428Y-109624761D01*
X69063809Y-109577142D01*
X70063809Y-108767619D02*
X70111428Y-108720000D01*
X70206666Y-108672380D01*
X70444761Y-108672380D01*
X70540000Y-108720000D01*
X70587619Y-108767619D01*
X70635238Y-108862857D01*
X70635238Y-108958095D01*
X70587619Y-109100952D01*
X70016190Y-109672380D01*
X70635238Y-109672380D01*
X68413333Y-95702380D02*
X68080000Y-95226190D01*
X67841904Y-95702380D02*
X67841904Y-94702380D01*
X68222857Y-94702380D01*
X68318095Y-94750000D01*
X68365714Y-94797619D01*
X68413333Y-94892857D01*
X68413333Y-95035714D01*
X68365714Y-95130952D01*
X68318095Y-95178571D01*
X68222857Y-95226190D01*
X67841904Y-95226190D01*
X69365714Y-95702380D02*
X68794285Y-95702380D01*
X69080000Y-95702380D02*
X69080000Y-94702380D01*
X68984761Y-94845238D01*
X68889523Y-94940476D01*
X68794285Y-94988095D01*
X64548095Y-94395714D02*
X64548095Y-95062380D01*
X64310000Y-94014761D02*
X64071904Y-94729047D01*
X64690952Y-94729047D01*
X64976666Y-94062380D02*
X65643333Y-94062380D01*
X65214761Y-95062380D01*
X66214761Y-94062380D02*
X66310000Y-94062380D01*
X66405238Y-94110000D01*
X66452857Y-94157619D01*
X66500476Y-94252857D01*
X66548095Y-94443333D01*
X66548095Y-94681428D01*
X66500476Y-94871904D01*
X66452857Y-94967142D01*
X66405238Y-95014761D01*
X66310000Y-95062380D01*
X66214761Y-95062380D01*
X66119523Y-95014761D01*
X66071904Y-94967142D01*
X66024285Y-94871904D01*
X65976666Y-94681428D01*
X65976666Y-94443333D01*
X66024285Y-94252857D01*
X66071904Y-94157619D01*
X66119523Y-94110000D01*
X66214761Y-94062380D01*
X65143333Y-83692380D02*
X64810000Y-83216190D01*
X64571904Y-83692380D02*
X64571904Y-82692380D01*
X64952857Y-82692380D01*
X65048095Y-82740000D01*
X65095714Y-82787619D01*
X65143333Y-82882857D01*
X65143333Y-83025714D01*
X65095714Y-83120952D01*
X65048095Y-83168571D01*
X64952857Y-83216190D01*
X64571904Y-83216190D01*
X65524285Y-82787619D02*
X65571904Y-82740000D01*
X65667142Y-82692380D01*
X65905238Y-82692380D01*
X66000476Y-82740000D01*
X66048095Y-82787619D01*
X66095714Y-82882857D01*
X66095714Y-82978095D01*
X66048095Y-83120952D01*
X65476666Y-83692380D01*
X66095714Y-83692380D01*
X64524285Y-87442380D02*
X64524285Y-86442380D01*
X65095714Y-87442380D01*
X65095714Y-86442380D01*
X66143333Y-87347142D02*
X66095714Y-87394761D01*
X65952857Y-87442380D01*
X65857619Y-87442380D01*
X65714761Y-87394761D01*
X65619523Y-87299523D01*
X65571904Y-87204285D01*
X65524285Y-87013809D01*
X65524285Y-86870952D01*
X65571904Y-86680476D01*
X65619523Y-86585238D01*
X65714761Y-86490000D01*
X65857619Y-86442380D01*
X65952857Y-86442380D01*
X66095714Y-86490000D01*
X66143333Y-86537619D01*
X26141666Y-63749380D02*
X26141666Y-64463666D01*
X26094047Y-64606523D01*
X25998809Y-64701761D01*
X25855952Y-64749380D01*
X25760714Y-64749380D01*
X27141666Y-64749380D02*
X26570238Y-64749380D01*
X26855952Y-64749380D02*
X26855952Y-63749380D01*
X26760714Y-63892238D01*
X26665476Y-63987476D01*
X26570238Y-64035095D01*
X71596261Y-91757119D02*
X71501023Y-91709500D01*
X71405785Y-91614261D01*
X71262928Y-91471404D01*
X71167690Y-91423785D01*
X71072452Y-91423785D01*
X71120071Y-91661880D02*
X71024833Y-91614261D01*
X70929595Y-91519023D01*
X70881976Y-91328547D01*
X70881976Y-90995214D01*
X70929595Y-90804738D01*
X71024833Y-90709500D01*
X71120071Y-90661880D01*
X71310547Y-90661880D01*
X71405785Y-90709500D01*
X71501023Y-90804738D01*
X71548642Y-90995214D01*
X71548642Y-91328547D01*
X71501023Y-91519023D01*
X71405785Y-91614261D01*
X71310547Y-91661880D01*
X71120071Y-91661880D01*
X72501023Y-91661880D02*
X71929595Y-91661880D01*
X72215309Y-91661880D02*
X72215309Y-90661880D01*
X72120071Y-90804738D01*
X72024833Y-90899976D01*
X71929595Y-90947595D01*
X69381976Y-86138071D02*
X69524833Y-86185690D01*
X69572452Y-86233309D01*
X69620071Y-86328547D01*
X69620071Y-86471404D01*
X69572452Y-86566642D01*
X69524833Y-86614261D01*
X69429595Y-86661880D01*
X69048642Y-86661880D01*
X69048642Y-85661880D01*
X69381976Y-85661880D01*
X69477214Y-85709500D01*
X69524833Y-85757119D01*
X69572452Y-85852357D01*
X69572452Y-85947595D01*
X69524833Y-86042833D01*
X69477214Y-86090452D01*
X69381976Y-86138071D01*
X69048642Y-86138071D01*
X70001023Y-86614261D02*
X70143880Y-86661880D01*
X70381976Y-86661880D01*
X70477214Y-86614261D01*
X70524833Y-86566642D01*
X70572452Y-86471404D01*
X70572452Y-86376166D01*
X70524833Y-86280928D01*
X70477214Y-86233309D01*
X70381976Y-86185690D01*
X70191500Y-86138071D01*
X70096261Y-86090452D01*
X70048642Y-86042833D01*
X70001023Y-85947595D01*
X70001023Y-85852357D01*
X70048642Y-85757119D01*
X70096261Y-85709500D01*
X70191500Y-85661880D01*
X70429595Y-85661880D01*
X70572452Y-85709500D01*
X70953404Y-86614261D02*
X71096261Y-86661880D01*
X71334357Y-86661880D01*
X71429595Y-86614261D01*
X71477214Y-86566642D01*
X71524833Y-86471404D01*
X71524833Y-86376166D01*
X71477214Y-86280928D01*
X71429595Y-86233309D01*
X71334357Y-86185690D01*
X71143880Y-86138071D01*
X71048642Y-86090452D01*
X71001023Y-86042833D01*
X70953404Y-85947595D01*
X70953404Y-85852357D01*
X71001023Y-85757119D01*
X71048642Y-85709500D01*
X71143880Y-85661880D01*
X71381976Y-85661880D01*
X71524833Y-85709500D01*
X72477214Y-86661880D02*
X71905785Y-86661880D01*
X72191500Y-86661880D02*
X72191500Y-85661880D01*
X72096261Y-85804738D01*
X72001023Y-85899976D01*
X71905785Y-85947595D01*
X72810547Y-85661880D02*
X73429595Y-85661880D01*
X73096261Y-86042833D01*
X73239119Y-86042833D01*
X73334357Y-86090452D01*
X73381976Y-86138071D01*
X73429595Y-86233309D01*
X73429595Y-86471404D01*
X73381976Y-86566642D01*
X73334357Y-86614261D01*
X73239119Y-86661880D01*
X72953404Y-86661880D01*
X72858166Y-86614261D01*
X72810547Y-86566642D01*
X74001023Y-86090452D02*
X73905785Y-86042833D01*
X73858166Y-85995214D01*
X73810547Y-85899976D01*
X73810547Y-85852357D01*
X73858166Y-85757119D01*
X73905785Y-85709500D01*
X74001023Y-85661880D01*
X74191500Y-85661880D01*
X74286738Y-85709500D01*
X74334357Y-85757119D01*
X74381976Y-85852357D01*
X74381976Y-85899976D01*
X74334357Y-85995214D01*
X74286738Y-86042833D01*
X74191500Y-86090452D01*
X74001023Y-86090452D01*
X73905785Y-86138071D01*
X73858166Y-86185690D01*
X73810547Y-86280928D01*
X73810547Y-86471404D01*
X73858166Y-86566642D01*
X73905785Y-86614261D01*
X74001023Y-86661880D01*
X74191500Y-86661880D01*
X74286738Y-86614261D01*
X74334357Y-86566642D01*
X74381976Y-86471404D01*
X74381976Y-86280928D01*
X74334357Y-86185690D01*
X74286738Y-86138071D01*
X74191500Y-86090452D01*
X62055880Y-76970166D02*
X61579690Y-77303500D01*
X62055880Y-77541595D02*
X61055880Y-77541595D01*
X61055880Y-77160642D01*
X61103500Y-77065404D01*
X61151119Y-77017785D01*
X61246357Y-76970166D01*
X61389214Y-76970166D01*
X61484452Y-77017785D01*
X61532071Y-77065404D01*
X61579690Y-77160642D01*
X61579690Y-77541595D01*
X61055880Y-76636833D02*
X61055880Y-76017785D01*
X61436833Y-76351119D01*
X61436833Y-76208261D01*
X61484452Y-76113023D01*
X61532071Y-76065404D01*
X61627309Y-76017785D01*
X61865404Y-76017785D01*
X61960642Y-76065404D01*
X62008261Y-76113023D01*
X62055880Y-76208261D01*
X62055880Y-76493976D01*
X62008261Y-76589214D01*
X61960642Y-76636833D01*
X58305880Y-77398738D02*
X58305880Y-77970166D01*
X58305880Y-77684452D02*
X57305880Y-77684452D01*
X57448738Y-77779690D01*
X57543976Y-77874928D01*
X57591595Y-77970166D01*
X57305880Y-76779690D02*
X57305880Y-76684452D01*
X57353500Y-76589214D01*
X57401119Y-76541595D01*
X57496357Y-76493976D01*
X57686833Y-76446357D01*
X57924928Y-76446357D01*
X58115404Y-76493976D01*
X58210642Y-76541595D01*
X58258261Y-76589214D01*
X58305880Y-76684452D01*
X58305880Y-76779690D01*
X58258261Y-76874928D01*
X58210642Y-76922547D01*
X58115404Y-76970166D01*
X57924928Y-77017785D01*
X57686833Y-77017785D01*
X57496357Y-76970166D01*
X57401119Y-76922547D01*
X57353500Y-76874928D01*
X57305880Y-76779690D01*
X58305880Y-76017785D02*
X57305880Y-76017785D01*
X57924928Y-75922547D02*
X58305880Y-75636833D01*
X57639214Y-75636833D02*
X58020166Y-76017785D01*
X65277380Y-70619666D02*
X64801190Y-70953000D01*
X65277380Y-71191095D02*
X64277380Y-71191095D01*
X64277380Y-70810142D01*
X64325000Y-70714904D01*
X64372619Y-70667285D01*
X64467857Y-70619666D01*
X64610714Y-70619666D01*
X64705952Y-70667285D01*
X64753571Y-70714904D01*
X64801190Y-70810142D01*
X64801190Y-71191095D01*
X64610714Y-69762523D02*
X65277380Y-69762523D01*
X64229761Y-70000619D02*
X64944047Y-70238714D01*
X64944047Y-69619666D01*
X69027380Y-71048238D02*
X69027380Y-71619666D01*
X69027380Y-71333952D02*
X68027380Y-71333952D01*
X68170238Y-71429190D01*
X68265476Y-71524428D01*
X68313095Y-71619666D01*
X68027380Y-70429190D02*
X68027380Y-70333952D01*
X68075000Y-70238714D01*
X68122619Y-70191095D01*
X68217857Y-70143476D01*
X68408333Y-70095857D01*
X68646428Y-70095857D01*
X68836904Y-70143476D01*
X68932142Y-70191095D01*
X68979761Y-70238714D01*
X69027380Y-70333952D01*
X69027380Y-70429190D01*
X68979761Y-70524428D01*
X68932142Y-70572047D01*
X68836904Y-70619666D01*
X68646428Y-70667285D01*
X68408333Y-70667285D01*
X68217857Y-70619666D01*
X68122619Y-70572047D01*
X68075000Y-70524428D01*
X68027380Y-70429190D01*
X69027380Y-69667285D02*
X68027380Y-69667285D01*
X68646428Y-69572047D02*
X69027380Y-69286333D01*
X68360714Y-69286333D02*
X68741666Y-69667285D01*
X62920333Y-59960380D02*
X62587000Y-59484190D01*
X62348904Y-59960380D02*
X62348904Y-58960380D01*
X62729857Y-58960380D01*
X62825095Y-59008000D01*
X62872714Y-59055619D01*
X62920333Y-59150857D01*
X62920333Y-59293714D01*
X62872714Y-59388952D01*
X62825095Y-59436571D01*
X62729857Y-59484190D01*
X62348904Y-59484190D01*
X63825095Y-58960380D02*
X63348904Y-58960380D01*
X63301285Y-59436571D01*
X63348904Y-59388952D01*
X63444142Y-59341333D01*
X63682238Y-59341333D01*
X63777476Y-59388952D01*
X63825095Y-59436571D01*
X63872714Y-59531809D01*
X63872714Y-59769904D01*
X63825095Y-59865142D01*
X63777476Y-59912761D01*
X63682238Y-59960380D01*
X63444142Y-59960380D01*
X63348904Y-59912761D01*
X63301285Y-59865142D01*
X62539380Y-55210380D02*
X62634619Y-55210380D01*
X62729857Y-55258000D01*
X62777476Y-55305619D01*
X62825095Y-55400857D01*
X62872714Y-55591333D01*
X62872714Y-55829428D01*
X62825095Y-56019904D01*
X62777476Y-56115142D01*
X62729857Y-56162761D01*
X62634619Y-56210380D01*
X62539380Y-56210380D01*
X62444142Y-56162761D01*
X62396523Y-56115142D01*
X62348904Y-56019904D01*
X62301285Y-55829428D01*
X62301285Y-55591333D01*
X62348904Y-55400857D01*
X62396523Y-55305619D01*
X62444142Y-55258000D01*
X62539380Y-55210380D01*
X63872714Y-56210380D02*
X63539380Y-55734190D01*
X63301285Y-56210380D02*
X63301285Y-55210380D01*
X63682238Y-55210380D01*
X63777476Y-55258000D01*
X63825095Y-55305619D01*
X63872714Y-55400857D01*
X63872714Y-55543714D01*
X63825095Y-55638952D01*
X63777476Y-55686571D01*
X63682238Y-55734190D01*
X63301285Y-55734190D01*
X69842333Y-56260380D02*
X69509000Y-55784190D01*
X69270904Y-56260380D02*
X69270904Y-55260380D01*
X69651857Y-55260380D01*
X69747095Y-55308000D01*
X69794714Y-55355619D01*
X69842333Y-55450857D01*
X69842333Y-55593714D01*
X69794714Y-55688952D01*
X69747095Y-55736571D01*
X69651857Y-55784190D01*
X69270904Y-55784190D01*
X70699476Y-55260380D02*
X70509000Y-55260380D01*
X70413761Y-55308000D01*
X70366142Y-55355619D01*
X70270904Y-55498476D01*
X70223285Y-55688952D01*
X70223285Y-56069904D01*
X70270904Y-56165142D01*
X70318523Y-56212761D01*
X70413761Y-56260380D01*
X70604238Y-56260380D01*
X70699476Y-56212761D01*
X70747095Y-56165142D01*
X70794714Y-56069904D01*
X70794714Y-55831809D01*
X70747095Y-55736571D01*
X70699476Y-55688952D01*
X70604238Y-55641333D01*
X70413761Y-55641333D01*
X70318523Y-55688952D01*
X70270904Y-55736571D01*
X70223285Y-55831809D01*
X69223285Y-60010380D02*
X69223285Y-59010380D01*
X69794714Y-60010380D01*
X69794714Y-59010380D01*
X70842333Y-59915142D02*
X70794714Y-59962761D01*
X70651857Y-60010380D01*
X70556619Y-60010380D01*
X70413761Y-59962761D01*
X70318523Y-59867523D01*
X70270904Y-59772285D01*
X70223285Y-59581809D01*
X70223285Y-59438952D01*
X70270904Y-59248476D01*
X70318523Y-59153238D01*
X70413761Y-59058000D01*
X70556619Y-59010380D01*
X70651857Y-59010380D01*
X70794714Y-59058000D01*
X70842333Y-59105619D01*
X45610666Y-52714380D02*
X45610666Y-53428666D01*
X45563047Y-53571523D01*
X45467809Y-53666761D01*
X45324952Y-53714380D01*
X45229714Y-53714380D01*
X46039238Y-52809619D02*
X46086857Y-52762000D01*
X46182095Y-52714380D01*
X46420190Y-52714380D01*
X46515428Y-52762000D01*
X46563047Y-52809619D01*
X46610666Y-52904857D01*
X46610666Y-53000095D01*
X46563047Y-53142952D01*
X45991619Y-53714380D01*
X46610666Y-53714380D01*
D15*
X82143806Y-105591700D02*
X82953750Y-105591700D01*
X83049038Y-105544057D01*
X83096682Y-105496413D01*
X83144326Y-105401125D01*
X83144326Y-105210550D01*
X83096682Y-105115262D01*
X83049038Y-105067619D01*
X82953750Y-105019975D01*
X82143806Y-105019975D01*
X82239093Y-104591180D02*
X82191450Y-104543537D01*
X82143806Y-104448249D01*
X82143806Y-104210030D01*
X82191450Y-104114742D01*
X82239093Y-104067099D01*
X82334381Y-104019455D01*
X82429669Y-104019455D01*
X82572600Y-104067099D01*
X83144326Y-104638824D01*
X83144326Y-104019455D01*
X83198845Y-68690266D02*
X82197155Y-68690266D01*
X82674150Y-68690266D02*
X82674150Y-68117872D01*
X83198845Y-68117872D02*
X82197155Y-68117872D01*
X83103446Y-67068482D02*
X83151145Y-67116182D01*
X83198845Y-67259280D01*
X83198845Y-67354680D01*
X83151145Y-67497778D01*
X83055746Y-67593177D01*
X82960347Y-67640877D01*
X82769549Y-67688576D01*
X82626451Y-67688576D01*
X82435653Y-67640877D01*
X82340254Y-67593177D01*
X82244855Y-67497778D01*
X82197155Y-67354680D01*
X82197155Y-67259280D01*
X82244855Y-67116182D01*
X82292554Y-67068482D01*
X82817249Y-66639187D02*
X82817249Y-65875994D01*
X83151145Y-65446699D02*
X83198845Y-65303600D01*
X83198845Y-65065102D01*
X83151145Y-64969703D01*
X83103446Y-64922004D01*
X83008047Y-64874304D01*
X82912648Y-64874304D01*
X82817249Y-64922004D01*
X82769549Y-64969703D01*
X82721850Y-65065102D01*
X82674150Y-65255900D01*
X82626451Y-65351300D01*
X82578751Y-65398999D01*
X82483352Y-65446699D01*
X82387953Y-65446699D01*
X82292554Y-65398999D01*
X82244855Y-65351300D01*
X82197155Y-65255900D01*
X82197155Y-65017403D01*
X82244855Y-64874304D01*
X83198845Y-63872614D02*
X82721850Y-64206511D01*
X83198845Y-64445009D02*
X82197155Y-64445009D01*
X82197155Y-64063412D01*
X82244855Y-63968013D01*
X82292554Y-63920314D01*
X82387953Y-63872614D01*
X82531052Y-63872614D01*
X82626451Y-63920314D01*
X82674150Y-63968013D01*
X82721850Y-64063412D01*
X82721850Y-64445009D01*
X82197155Y-63252520D02*
X82197155Y-63157121D01*
X82244855Y-63061722D01*
X82292554Y-63014023D01*
X82387953Y-62966323D01*
X82578751Y-62918624D01*
X82817249Y-62918624D01*
X83008047Y-62966323D01*
X83103446Y-63014023D01*
X83151145Y-63061722D01*
X83198845Y-63157121D01*
X83198845Y-63252520D01*
X83151145Y-63347920D01*
X83103446Y-63395619D01*
X83008047Y-63443319D01*
X82817249Y-63491018D01*
X82578751Y-63491018D01*
X82387953Y-63443319D01*
X82292554Y-63395619D01*
X82244855Y-63347920D01*
X82197155Y-63252520D01*
X82531052Y-62060032D02*
X83198845Y-62060032D01*
X82149455Y-62298530D02*
X82864948Y-62537028D01*
X82864948Y-61916934D01*
M02*
