G04 #@! TF.GenerationSoftware,KiCad,Pcbnew,(5.1.0)-1*
G04 #@! TF.CreationDate,2019-06-12T13:49:38+02:00*
G04 #@! TF.ProjectId,me-freeled,6d652d66-7265-4656-9c65-642e6b696361,rev?*
G04 #@! TF.SameCoordinates,Original*
G04 #@! TF.FileFunction,Copper,L1,Top*
G04 #@! TF.FilePolarity,Positive*
%FSLAX46Y46*%
G04 Gerber Fmt 4.6, Leading zero omitted, Abs format (unit mm)*
G04 Created by KiCad (PCBNEW (5.1.0)-1) date 2019-06-12 13:49:38*
%MOMM*%
%LPD*%
G04 APERTURE LIST*
%ADD10C,1.524000*%
%ADD11R,1.550000X1.300000*%
%ADD12R,2.000000X1.700000*%
%ADD13R,3.500000X3.500000*%
%ADD14R,0.900000X0.800000*%
%ADD15R,1.700000X2.000000*%
%ADD16C,3.000000*%
%ADD17R,3.000000X3.000000*%
%ADD18C,1.530000*%
%ADD19C,0.800000*%
%ADD20C,0.250000*%
%ADD21C,1.000000*%
%ADD22C,0.254000*%
G04 APERTURE END LIST*
D10*
X42672000Y-66040000D03*
X40132000Y-66040000D03*
X37592000Y-66040000D03*
X35052000Y-66040000D03*
D11*
X35725000Y-98770000D03*
X27775000Y-98770000D03*
X35725000Y-94270000D03*
X27775000Y-94270000D03*
X43015000Y-94270000D03*
X50965000Y-94270000D03*
X43015000Y-98770000D03*
X50965000Y-98770000D03*
X50965000Y-111470000D03*
X43015000Y-111470000D03*
X50965000Y-106970000D03*
X43015000Y-106970000D03*
X27775000Y-106970000D03*
X35725000Y-106970000D03*
X27775000Y-111470000D03*
X35725000Y-111470000D03*
D10*
X55880000Y-71120000D03*
X55880000Y-73660000D03*
X55880000Y-76200000D03*
X55880000Y-78740000D03*
X55880000Y-81280000D03*
X55880000Y-83820000D03*
X55880000Y-86360000D03*
X55880000Y-88900000D03*
X55880000Y-91440000D03*
X55880000Y-93980000D03*
X55880000Y-96520000D03*
X55880000Y-99060000D03*
X55880000Y-101600000D03*
X55880000Y-104140000D03*
X55880000Y-106680000D03*
X55880000Y-109220000D03*
X76200000Y-109220000D03*
X76200000Y-106680000D03*
X76200000Y-104140000D03*
X76200000Y-101600000D03*
X76200000Y-99060000D03*
X76200000Y-96520000D03*
X76200000Y-93980000D03*
X76200000Y-91440000D03*
X76200000Y-88900000D03*
X76200000Y-86360000D03*
X76200000Y-83820000D03*
X76200000Y-81280000D03*
D12*
X67310000Y-92710000D03*
X63310000Y-92710000D03*
X67310000Y-85090000D03*
X63310000Y-85090000D03*
D13*
X31925000Y-63247000D03*
X28925000Y-58547000D03*
X34925000Y-58547000D03*
D14*
X70691500Y-88709500D03*
X72691500Y-87759500D03*
X72691500Y-89659500D03*
D15*
X59753500Y-74803500D03*
X59753500Y-78803500D03*
X66675000Y-68453000D03*
X66675000Y-72453000D03*
D12*
X65087000Y-57658000D03*
X61087000Y-57658000D03*
X72009000Y-57658000D03*
X68009000Y-57658000D03*
D16*
X51054000Y-57912000D03*
X45974000Y-57912000D03*
D17*
X40894000Y-57912000D03*
D18*
X79375000Y-85979000D03*
X79375000Y-83439000D03*
X79375000Y-80899000D03*
X79375000Y-88519000D03*
D19*
X51181000Y-108839000D03*
X63373000Y-61246010D03*
X65087000Y-57658000D03*
X53467000Y-63246000D03*
X59436000Y-59346000D03*
X62230000Y-61246010D03*
X72009000Y-57658000D03*
X59817000Y-86614000D03*
X66421000Y-98298000D03*
D20*
X66675000Y-67996000D02*
X63310000Y-71361000D01*
X63310000Y-71361000D02*
X63310000Y-85090000D01*
X66675000Y-67996000D02*
X66675000Y-68453000D01*
D21*
X34925000Y-58547000D02*
X34925000Y-58475000D01*
X40894000Y-56896000D02*
X40894000Y-57912000D01*
X39878000Y-55880000D02*
X40894000Y-56896000D01*
X36830000Y-55880000D02*
X39878000Y-55880000D01*
X34925000Y-58547000D02*
X34925000Y-57785000D01*
X34925000Y-57785000D02*
X36830000Y-55880000D01*
D20*
X40894000Y-59662000D02*
X42769010Y-61537010D01*
X40894000Y-57912000D02*
X40894000Y-59662000D01*
X66675000Y-61595000D02*
X66675000Y-67996000D01*
X42769010Y-61537010D02*
X55556990Y-61537010D01*
X55556990Y-61537010D02*
X56572990Y-60521010D01*
X56572990Y-60521010D02*
X65601010Y-60521010D01*
X65601010Y-60521010D02*
X66675000Y-61595000D01*
X59753500Y-74803500D02*
X60928800Y-74803500D01*
X60928800Y-74803500D02*
X60928800Y-85030400D01*
X60928800Y-85030400D02*
X62674900Y-86776500D01*
X62674900Y-86776500D02*
X73032600Y-86776500D01*
X73032600Y-86776500D02*
X73503200Y-87247100D01*
X73503200Y-87247100D02*
X73503200Y-88303800D01*
X73503200Y-88303800D02*
X72872800Y-88934200D01*
X72872800Y-88934200D02*
X72691500Y-88934200D01*
X59753500Y-74803500D02*
X57023500Y-74803500D01*
X57023500Y-74803500D02*
X55880000Y-73660000D01*
X72691500Y-89659500D02*
X72691500Y-88934200D01*
X37592000Y-91427700D02*
X35725000Y-93294700D01*
X37592000Y-66040000D02*
X37592000Y-91427700D01*
X43015000Y-93782300D02*
X39946600Y-93782300D01*
X39946600Y-93782300D02*
X37592000Y-91427700D01*
X49864700Y-94270000D02*
X49377000Y-93782300D01*
X49377000Y-93782300D02*
X43015000Y-93782300D01*
X35725000Y-94270000D02*
X34624700Y-94270000D01*
X27775000Y-94757600D02*
X34137100Y-94757600D01*
X34137100Y-94757600D02*
X34624700Y-94270000D01*
X27775000Y-94757600D02*
X27775000Y-95245300D01*
X27775000Y-94270000D02*
X27775000Y-94757600D01*
X35725000Y-94270000D02*
X35725000Y-93294700D01*
X35725000Y-106970000D02*
X34624700Y-106970000D01*
X27775000Y-106482300D02*
X34137000Y-106482300D01*
X34137000Y-106482300D02*
X34624700Y-106970000D01*
X27775000Y-106482300D02*
X27775000Y-105994700D01*
X27775000Y-106970000D02*
X27775000Y-106482300D01*
X50965000Y-94270000D02*
X49864700Y-94270000D01*
X43015000Y-94270000D02*
X43015000Y-93782300D01*
X35725000Y-106970000D02*
X43015000Y-106970000D01*
X50965000Y-106970000D02*
X43015000Y-106970000D01*
X27775000Y-105994700D02*
X26674600Y-104894300D01*
X26674600Y-104894300D02*
X26674600Y-96345700D01*
X26674600Y-96345700D02*
X27775000Y-95245300D01*
X51181000Y-107186000D02*
X50965000Y-106970000D01*
X51181000Y-108839000D02*
X51181000Y-107186000D01*
X76200000Y-91440000D02*
X57329400Y-110310600D01*
X57329400Y-110310600D02*
X55403200Y-110310600D01*
X55403200Y-110310600D02*
X53840100Y-108747500D01*
X53840100Y-108747500D02*
X53840100Y-99690200D01*
X53840100Y-99690200D02*
X51944500Y-97794600D01*
X51944500Y-97794600D02*
X42039100Y-97794600D01*
X42039100Y-97794600D02*
X41859500Y-97974200D01*
X41859500Y-97974200D02*
X41859500Y-100459700D01*
X41859500Y-100459700D02*
X42545900Y-101146100D01*
X42545900Y-101146100D02*
X42545900Y-104237900D01*
X42545900Y-104237900D02*
X40728200Y-106055600D01*
X40728200Y-106055600D02*
X38037800Y-106055600D01*
X38037800Y-106055600D02*
X35725000Y-103742800D01*
X35725000Y-103742800D02*
X35725000Y-98770000D01*
X35725000Y-98770000D02*
X28875300Y-98770000D01*
X27775000Y-98770000D02*
X28875300Y-98770000D01*
X43015000Y-98770000D02*
X44115300Y-98770000D01*
X50965000Y-99320000D02*
X44665300Y-99320000D01*
X44665300Y-99320000D02*
X44115300Y-98770000D01*
X50965000Y-99320000D02*
X50965000Y-99745300D01*
X50965000Y-98770000D02*
X50965000Y-99320000D01*
X76200000Y-99060000D02*
X64464700Y-110795300D01*
X64464700Y-110795300D02*
X55251000Y-110795300D01*
X55251000Y-110795300D02*
X53389700Y-108934000D01*
X53389700Y-108934000D02*
X53389700Y-102170000D01*
X53389700Y-102170000D02*
X50965000Y-99745300D01*
X76200000Y-101600000D02*
X66330000Y-111470000D01*
X66330000Y-111470000D02*
X50965000Y-111470000D01*
X50965000Y-111470000D02*
X43015000Y-111470000D01*
X59491400Y-65177700D02*
X54776300Y-69892800D01*
X54776300Y-69892800D02*
X54776300Y-74124800D01*
X54776300Y-74124800D02*
X55422100Y-74770600D01*
X55422100Y-74770600D02*
X55997800Y-74770600D01*
X55997800Y-74770600D02*
X59165900Y-77938700D01*
X59165900Y-77938700D02*
X59165900Y-78803500D01*
X59165900Y-78803500D02*
X59165900Y-83904400D01*
X59165900Y-83904400D02*
X63021000Y-87759500D01*
X63021000Y-87759500D02*
X72691500Y-87759500D01*
X59753500Y-78803500D02*
X59165900Y-78803500D01*
X59491400Y-65177700D02*
X59491400Y-64841600D01*
X63255306Y-61246010D02*
X63373000Y-61246010D01*
X59491400Y-64841600D02*
X59659716Y-64841600D01*
X59659716Y-64841600D02*
X63255306Y-61246010D01*
X66337000Y-57658000D02*
X68009000Y-57658000D01*
X65087000Y-57658000D02*
X66337000Y-57658000D01*
X67564000Y-60071000D02*
X55880000Y-60071000D01*
X68834000Y-61341000D02*
X67564000Y-60071000D01*
X74041000Y-61341000D02*
X68834000Y-61341000D01*
X45974000Y-60579000D02*
X45974000Y-57912000D01*
X77300000Y-86854300D02*
X77300000Y-64600000D01*
X76524300Y-87630000D02*
X77300000Y-86854300D01*
X77300000Y-64600000D02*
X74041000Y-61341000D01*
X63310000Y-93885300D02*
X70512600Y-93885300D01*
X63310000Y-92710000D02*
X63310000Y-93885300D01*
X70512600Y-93885300D02*
X74674300Y-89723600D01*
X46482000Y-61087000D02*
X45974000Y-60579000D01*
X74674300Y-89723600D02*
X74674300Y-88881700D01*
X55880000Y-60071000D02*
X54864000Y-61087000D01*
X74674300Y-88881700D02*
X75926000Y-87630000D01*
X54864000Y-61087000D02*
X46482000Y-61087000D01*
X75926000Y-87630000D02*
X76524300Y-87630000D01*
X67310000Y-85090000D02*
X74930000Y-85090000D01*
X74930000Y-85090000D02*
X76200000Y-86360000D01*
X70691500Y-89434800D02*
X71645300Y-90388600D01*
X71645300Y-90388600D02*
X73292800Y-90388600D01*
X73292800Y-90388600D02*
X73953600Y-89727800D01*
X73953600Y-89727800D02*
X73953600Y-87028600D01*
X73953600Y-87028600D02*
X73251100Y-86326100D01*
X73251100Y-86326100D02*
X66192300Y-86326100D01*
X66192300Y-86326100D02*
X65984600Y-86118400D01*
X65984600Y-86118400D02*
X65984600Y-74468700D01*
X65984600Y-74468700D02*
X66675000Y-73778300D01*
X67310000Y-91534700D02*
X69409900Y-89434800D01*
X69409900Y-89434800D02*
X70691500Y-89434800D01*
X66675000Y-72453000D02*
X66675000Y-73778300D01*
X67310000Y-92710000D02*
X67310000Y-91534700D01*
X70691500Y-88709500D02*
X70691500Y-89434800D01*
X27775000Y-111470000D02*
X28875300Y-111470000D01*
X35725000Y-111957600D02*
X29362900Y-111957600D01*
X29362900Y-111957600D02*
X28875300Y-111470000D01*
X35725000Y-111957600D02*
X35725000Y-112445300D01*
X35725000Y-111470000D02*
X35725000Y-111957600D01*
X76200000Y-104140000D02*
X67894700Y-112445300D01*
X67894700Y-112445300D02*
X35725000Y-112445300D01*
X55880000Y-109220000D02*
X54427400Y-107767400D01*
X54427400Y-107767400D02*
X54427400Y-94251100D01*
X54427400Y-94251100D02*
X47244000Y-87067700D01*
X47244000Y-87067700D02*
X47244000Y-80772000D01*
X47244000Y-80772000D02*
X53467000Y-74549000D01*
X53467000Y-74549000D02*
X53467000Y-63246000D01*
X59436000Y-59309000D02*
X61087000Y-57658000D01*
X59436000Y-59346000D02*
X59436000Y-59309000D01*
X54326000Y-65467300D02*
X54326000Y-92426000D01*
X54326000Y-92426000D02*
X55880000Y-93980000D01*
X54326000Y-62641000D02*
X54737000Y-62230000D01*
X54326000Y-65467300D02*
X54326000Y-62641000D01*
X54737000Y-62230000D02*
X55753000Y-62230000D01*
X55753000Y-62230000D02*
X57011980Y-60971020D01*
X57011980Y-60971020D02*
X61955010Y-60971020D01*
X61955010Y-60971020D02*
X62230000Y-61246010D01*
X55880000Y-91440000D02*
X59817000Y-87503000D01*
X59817000Y-87503000D02*
X59817000Y-86614000D01*
X66820999Y-97898001D02*
X67836999Y-97898001D01*
X66421000Y-98298000D02*
X66820999Y-97898001D01*
X67836999Y-97898001D02*
X75565000Y-90170000D01*
X75565000Y-90170000D02*
X80010000Y-90170000D01*
X80010000Y-90170000D02*
X80772000Y-89408000D01*
X80772000Y-87376000D02*
X79375000Y-85979000D01*
X80772000Y-89408000D02*
X80772000Y-87376000D01*
D22*
G36*
X80524173Y-54012109D02*
G01*
X79870849Y-54224387D01*
X79271199Y-54559520D01*
X78748063Y-55004743D01*
X78321369Y-55543098D01*
X78007367Y-56154079D01*
X77818019Y-56814414D01*
X77760537Y-57498950D01*
X77837110Y-58181615D01*
X78044822Y-58836405D01*
X78375761Y-59438380D01*
X78817321Y-59964611D01*
X79352684Y-60395054D01*
X79961457Y-60713313D01*
X80620454Y-60907267D01*
X81304573Y-60969526D01*
X81987755Y-60897721D01*
X82643980Y-60694585D01*
X83248251Y-60367857D01*
X83777551Y-59929982D01*
X84211721Y-59397637D01*
X84430001Y-58987113D01*
X84430000Y-63532418D01*
X84430001Y-63532428D01*
X84430000Y-110213060D01*
X84156192Y-109731070D01*
X83707327Y-109211056D01*
X83166006Y-108788130D01*
X82552848Y-108478401D01*
X81891208Y-108293668D01*
X81206287Y-108240966D01*
X80524173Y-108322303D01*
X79870849Y-108534581D01*
X79271199Y-108869714D01*
X78748063Y-109314937D01*
X78321369Y-109853292D01*
X78007367Y-110464273D01*
X77818019Y-111124608D01*
X77760537Y-111809144D01*
X77837110Y-112491809D01*
X78044822Y-113146599D01*
X78375761Y-113748574D01*
X78817321Y-114274805D01*
X79352684Y-114705248D01*
X79744338Y-114910000D01*
X27972279Y-114910000D01*
X27328779Y-114846904D01*
X26740836Y-114669394D01*
X26198564Y-114381063D01*
X25722636Y-113992906D01*
X25331155Y-113519686D01*
X25039050Y-112979449D01*
X24857437Y-112392756D01*
X24790000Y-111751130D01*
X24790000Y-96345700D01*
X25910924Y-96345700D01*
X25914601Y-96383032D01*
X25914600Y-104856978D01*
X25910924Y-104894300D01*
X25914600Y-104931622D01*
X25914600Y-104931632D01*
X25925597Y-105043285D01*
X25969054Y-105186546D01*
X26039626Y-105318576D01*
X26054489Y-105336686D01*
X26134599Y-105434301D01*
X26163602Y-105458104D01*
X26562820Y-105857321D01*
X26548815Y-105868815D01*
X26469463Y-105965506D01*
X26410498Y-106075820D01*
X26374188Y-106195518D01*
X26361928Y-106320000D01*
X26361928Y-107620000D01*
X26374188Y-107744482D01*
X26410498Y-107864180D01*
X26469463Y-107974494D01*
X26548815Y-108071185D01*
X26645506Y-108150537D01*
X26755820Y-108209502D01*
X26875518Y-108245812D01*
X27000000Y-108258072D01*
X28550000Y-108258072D01*
X28674482Y-108245812D01*
X28794180Y-108209502D01*
X28904494Y-108150537D01*
X29001185Y-108071185D01*
X29080537Y-107974494D01*
X29139502Y-107864180D01*
X29175812Y-107744482D01*
X29188072Y-107620000D01*
X29188072Y-107242300D01*
X33822199Y-107242300D01*
X34060896Y-107480997D01*
X34084699Y-107510001D01*
X34157846Y-107570031D01*
X34200423Y-107604974D01*
X34316562Y-107667052D01*
X34324188Y-107744482D01*
X34360498Y-107864180D01*
X34419463Y-107974494D01*
X34498815Y-108071185D01*
X34595506Y-108150537D01*
X34705820Y-108209502D01*
X34825518Y-108245812D01*
X34950000Y-108258072D01*
X36500000Y-108258072D01*
X36624482Y-108245812D01*
X36744180Y-108209502D01*
X36854494Y-108150537D01*
X36951185Y-108071185D01*
X37030537Y-107974494D01*
X37089502Y-107864180D01*
X37125812Y-107744482D01*
X37127238Y-107730000D01*
X41612762Y-107730000D01*
X41614188Y-107744482D01*
X41650498Y-107864180D01*
X41709463Y-107974494D01*
X41788815Y-108071185D01*
X41885506Y-108150537D01*
X41995820Y-108209502D01*
X42115518Y-108245812D01*
X42240000Y-108258072D01*
X43790000Y-108258072D01*
X43914482Y-108245812D01*
X44034180Y-108209502D01*
X44144494Y-108150537D01*
X44241185Y-108071185D01*
X44320537Y-107974494D01*
X44379502Y-107864180D01*
X44415812Y-107744482D01*
X44417238Y-107730000D01*
X49562762Y-107730000D01*
X49564188Y-107744482D01*
X49600498Y-107864180D01*
X49659463Y-107974494D01*
X49738815Y-108071185D01*
X49835506Y-108150537D01*
X49945820Y-108209502D01*
X50065518Y-108245812D01*
X50190000Y-108258072D01*
X50324380Y-108258072D01*
X50263795Y-108348744D01*
X50185774Y-108537102D01*
X50146000Y-108737061D01*
X50146000Y-108940939D01*
X50185774Y-109140898D01*
X50263795Y-109329256D01*
X50377063Y-109498774D01*
X50521226Y-109642937D01*
X50690744Y-109756205D01*
X50879102Y-109834226D01*
X51079061Y-109874000D01*
X51282939Y-109874000D01*
X51482898Y-109834226D01*
X51671256Y-109756205D01*
X51840774Y-109642937D01*
X51984937Y-109498774D01*
X52098205Y-109329256D01*
X52176226Y-109140898D01*
X52216000Y-108940939D01*
X52216000Y-108737061D01*
X52176226Y-108537102D01*
X52098205Y-108348744D01*
X51999644Y-108201236D01*
X52094494Y-108150537D01*
X52191185Y-108071185D01*
X52270537Y-107974494D01*
X52329502Y-107864180D01*
X52365812Y-107744482D01*
X52378072Y-107620000D01*
X52378072Y-106320000D01*
X52365812Y-106195518D01*
X52329502Y-106075820D01*
X52270537Y-105965506D01*
X52191185Y-105868815D01*
X52094494Y-105789463D01*
X51984180Y-105730498D01*
X51864482Y-105694188D01*
X51740000Y-105681928D01*
X50190000Y-105681928D01*
X50065518Y-105694188D01*
X49945820Y-105730498D01*
X49835506Y-105789463D01*
X49738815Y-105868815D01*
X49659463Y-105965506D01*
X49600498Y-106075820D01*
X49564188Y-106195518D01*
X49562762Y-106210000D01*
X44417238Y-106210000D01*
X44415812Y-106195518D01*
X44379502Y-106075820D01*
X44320537Y-105965506D01*
X44241185Y-105868815D01*
X44144494Y-105789463D01*
X44034180Y-105730498D01*
X43914482Y-105694188D01*
X43790000Y-105681928D01*
X42240000Y-105681928D01*
X42169755Y-105688846D01*
X43056903Y-104801699D01*
X43085901Y-104777901D01*
X43112644Y-104745315D01*
X43180874Y-104662177D01*
X43251446Y-104530147D01*
X43263077Y-104491803D01*
X43294903Y-104386886D01*
X43305900Y-104275233D01*
X43305900Y-104275223D01*
X43309576Y-104237900D01*
X43305900Y-104200578D01*
X43305900Y-101183422D01*
X43309576Y-101146099D01*
X43305900Y-101108776D01*
X43305900Y-101108767D01*
X43294903Y-100997114D01*
X43251446Y-100853853D01*
X43180874Y-100721824D01*
X43085901Y-100606099D01*
X43056904Y-100582302D01*
X42619500Y-100144899D01*
X42619500Y-100058072D01*
X43790000Y-100058072D01*
X43914482Y-100045812D01*
X44034180Y-100009502D01*
X44144494Y-99950537D01*
X44190056Y-99913146D01*
X44241024Y-99954974D01*
X44373053Y-100025546D01*
X44516314Y-100069003D01*
X44627967Y-100080000D01*
X44627976Y-100080000D01*
X44665299Y-100083676D01*
X44702622Y-100080000D01*
X50282146Y-100080000D01*
X50330026Y-100169576D01*
X50425000Y-100285301D01*
X50453998Y-100309099D01*
X52629701Y-102484803D01*
X52629700Y-108896677D01*
X52626024Y-108934000D01*
X52629700Y-108971322D01*
X52629700Y-108971332D01*
X52640697Y-109082985D01*
X52667631Y-109171775D01*
X52684154Y-109226246D01*
X52754726Y-109358276D01*
X52763516Y-109368986D01*
X52849699Y-109474001D01*
X52878703Y-109497804D01*
X54090898Y-110710000D01*
X52367238Y-110710000D01*
X52365812Y-110695518D01*
X52329502Y-110575820D01*
X52270537Y-110465506D01*
X52191185Y-110368815D01*
X52094494Y-110289463D01*
X51984180Y-110230498D01*
X51864482Y-110194188D01*
X51740000Y-110181928D01*
X50190000Y-110181928D01*
X50065518Y-110194188D01*
X49945820Y-110230498D01*
X49835506Y-110289463D01*
X49738815Y-110368815D01*
X49659463Y-110465506D01*
X49600498Y-110575820D01*
X49564188Y-110695518D01*
X49562762Y-110710000D01*
X44417238Y-110710000D01*
X44415812Y-110695518D01*
X44379502Y-110575820D01*
X44320537Y-110465506D01*
X44241185Y-110368815D01*
X44144494Y-110289463D01*
X44034180Y-110230498D01*
X43914482Y-110194188D01*
X43790000Y-110181928D01*
X42240000Y-110181928D01*
X42115518Y-110194188D01*
X41995820Y-110230498D01*
X41885506Y-110289463D01*
X41788815Y-110368815D01*
X41709463Y-110465506D01*
X41650498Y-110575820D01*
X41614188Y-110695518D01*
X41601928Y-110820000D01*
X41601928Y-111685300D01*
X37138072Y-111685300D01*
X37138072Y-110820000D01*
X37125812Y-110695518D01*
X37089502Y-110575820D01*
X37030537Y-110465506D01*
X36951185Y-110368815D01*
X36854494Y-110289463D01*
X36744180Y-110230498D01*
X36624482Y-110194188D01*
X36500000Y-110181928D01*
X34950000Y-110181928D01*
X34825518Y-110194188D01*
X34705820Y-110230498D01*
X34595506Y-110289463D01*
X34498815Y-110368815D01*
X34419463Y-110465506D01*
X34360498Y-110575820D01*
X34324188Y-110695518D01*
X34311928Y-110820000D01*
X34311928Y-111197600D01*
X29677701Y-111197600D01*
X29439104Y-110959003D01*
X29415301Y-110929999D01*
X29299576Y-110835026D01*
X29183438Y-110772948D01*
X29175812Y-110695518D01*
X29139502Y-110575820D01*
X29080537Y-110465506D01*
X29001185Y-110368815D01*
X28904494Y-110289463D01*
X28794180Y-110230498D01*
X28674482Y-110194188D01*
X28550000Y-110181928D01*
X27000000Y-110181928D01*
X26875518Y-110194188D01*
X26755820Y-110230498D01*
X26645506Y-110289463D01*
X26548815Y-110368815D01*
X26469463Y-110465506D01*
X26410498Y-110575820D01*
X26374188Y-110695518D01*
X26361928Y-110820000D01*
X26361928Y-112120000D01*
X26374188Y-112244482D01*
X26410498Y-112364180D01*
X26469463Y-112474494D01*
X26548815Y-112571185D01*
X26645506Y-112650537D01*
X26755820Y-112709502D01*
X26875518Y-112745812D01*
X27000000Y-112758072D01*
X28550000Y-112758072D01*
X28674482Y-112745812D01*
X28794180Y-112709502D01*
X28904494Y-112650537D01*
X28960727Y-112604388D01*
X29070653Y-112663146D01*
X29213914Y-112706603D01*
X29362900Y-112721277D01*
X29400233Y-112717600D01*
X34732516Y-112717600D01*
X34825518Y-112745812D01*
X34950000Y-112758072D01*
X35030425Y-112758072D01*
X35090026Y-112869576D01*
X35184999Y-112985301D01*
X35300724Y-113080274D01*
X35432753Y-113150846D01*
X35576014Y-113194303D01*
X35687667Y-113205300D01*
X35725000Y-113208977D01*
X35762333Y-113205300D01*
X67857378Y-113205300D01*
X67894700Y-113208976D01*
X67932022Y-113205300D01*
X67932033Y-113205300D01*
X68043686Y-113194303D01*
X68186947Y-113150846D01*
X68318976Y-113080274D01*
X68434701Y-112985301D01*
X68458504Y-112956297D01*
X74803000Y-106611802D01*
X74803000Y-106817592D01*
X74856686Y-107087490D01*
X74961995Y-107341727D01*
X75114880Y-107570535D01*
X75309465Y-107765120D01*
X75538273Y-107918005D01*
X75615515Y-107950000D01*
X75538273Y-107981995D01*
X75309465Y-108134880D01*
X75114880Y-108329465D01*
X74961995Y-108558273D01*
X74856686Y-108812510D01*
X74803000Y-109082408D01*
X74803000Y-109357592D01*
X74856686Y-109627490D01*
X74961995Y-109881727D01*
X75114880Y-110110535D01*
X75309465Y-110305120D01*
X75538273Y-110458005D01*
X75792510Y-110563314D01*
X76062408Y-110617000D01*
X76337592Y-110617000D01*
X76607490Y-110563314D01*
X76861727Y-110458005D01*
X77090535Y-110305120D01*
X77285120Y-110110535D01*
X77438005Y-109881727D01*
X77543314Y-109627490D01*
X77597000Y-109357592D01*
X77597000Y-109082408D01*
X77543314Y-108812510D01*
X77438005Y-108558273D01*
X77285120Y-108329465D01*
X77090535Y-108134880D01*
X76861727Y-107981995D01*
X76784485Y-107950000D01*
X76861727Y-107918005D01*
X77090535Y-107765120D01*
X77285120Y-107570535D01*
X77438005Y-107341727D01*
X77543314Y-107087490D01*
X77597000Y-106817592D01*
X77597000Y-106542408D01*
X77543314Y-106272510D01*
X77438005Y-106018273D01*
X77285120Y-105789465D01*
X77090535Y-105594880D01*
X76861727Y-105441995D01*
X76784485Y-105410000D01*
X76861727Y-105378005D01*
X77090535Y-105225120D01*
X77285120Y-105030535D01*
X77438005Y-104801727D01*
X77543314Y-104547490D01*
X77597000Y-104277592D01*
X77597000Y-104002408D01*
X77543314Y-103732510D01*
X77438005Y-103478273D01*
X77285120Y-103249465D01*
X77090535Y-103054880D01*
X76861727Y-102901995D01*
X76784485Y-102870000D01*
X76861727Y-102838005D01*
X77090535Y-102685120D01*
X77285120Y-102490535D01*
X77438005Y-102261727D01*
X77543314Y-102007490D01*
X77597000Y-101737592D01*
X77597000Y-101462408D01*
X77543314Y-101192510D01*
X77438005Y-100938273D01*
X77285120Y-100709465D01*
X77090535Y-100514880D01*
X76861727Y-100361995D01*
X76784485Y-100330000D01*
X76861727Y-100298005D01*
X77090535Y-100145120D01*
X77285120Y-99950535D01*
X77438005Y-99721727D01*
X77543314Y-99467490D01*
X77597000Y-99197592D01*
X77597000Y-98922408D01*
X77543314Y-98652510D01*
X77438005Y-98398273D01*
X77285120Y-98169465D01*
X77090535Y-97974880D01*
X76861727Y-97821995D01*
X76784485Y-97790000D01*
X76861727Y-97758005D01*
X77090535Y-97605120D01*
X77285120Y-97410535D01*
X77438005Y-97181727D01*
X77543314Y-96927490D01*
X77597000Y-96657592D01*
X77597000Y-96382408D01*
X77543314Y-96112510D01*
X77438005Y-95858273D01*
X77285120Y-95629465D01*
X77090535Y-95434880D01*
X76861727Y-95281995D01*
X76784485Y-95250000D01*
X76861727Y-95218005D01*
X77090535Y-95065120D01*
X77285120Y-94870535D01*
X77438005Y-94641727D01*
X77543314Y-94387490D01*
X77597000Y-94117592D01*
X77597000Y-93842408D01*
X77543314Y-93572510D01*
X77438005Y-93318273D01*
X77285120Y-93089465D01*
X77090535Y-92894880D01*
X76861727Y-92741995D01*
X76784485Y-92710000D01*
X76861727Y-92678005D01*
X77090535Y-92525120D01*
X77285120Y-92330535D01*
X77438005Y-92101727D01*
X77543314Y-91847490D01*
X77597000Y-91577592D01*
X77597000Y-91302408D01*
X77543314Y-91032510D01*
X77500853Y-90930000D01*
X79972678Y-90930000D01*
X80010000Y-90933676D01*
X80047322Y-90930000D01*
X80047333Y-90930000D01*
X80158986Y-90919003D01*
X80302247Y-90875546D01*
X80434276Y-90804974D01*
X80550001Y-90710001D01*
X80573803Y-90680998D01*
X81283004Y-89971798D01*
X81312001Y-89948001D01*
X81406974Y-89832276D01*
X81477546Y-89700247D01*
X81521003Y-89556986D01*
X81532000Y-89445333D01*
X81532000Y-89445325D01*
X81535676Y-89408000D01*
X81532000Y-89370675D01*
X81532000Y-87413322D01*
X81535676Y-87375999D01*
X81532000Y-87338676D01*
X81532000Y-87338667D01*
X81521003Y-87227014D01*
X81477546Y-87083753D01*
X81406974Y-86951724D01*
X81312001Y-86835999D01*
X81283003Y-86812201D01*
X80743923Y-86273122D01*
X80775000Y-86116888D01*
X80775000Y-85841112D01*
X80721199Y-85570635D01*
X80615664Y-85315851D01*
X80462451Y-85086552D01*
X80267448Y-84891549D01*
X80038149Y-84738336D01*
X79967326Y-84709000D01*
X80038149Y-84679664D01*
X80267448Y-84526451D01*
X80462451Y-84331448D01*
X80615664Y-84102149D01*
X80721199Y-83847365D01*
X80775000Y-83576888D01*
X80775000Y-83301112D01*
X80721199Y-83030635D01*
X80615664Y-82775851D01*
X80462451Y-82546552D01*
X80267448Y-82351549D01*
X80038149Y-82198336D01*
X79973406Y-82171518D01*
X79979072Y-82169478D01*
X80095760Y-82107106D01*
X80163102Y-81866707D01*
X79375000Y-81078605D01*
X78586898Y-81866707D01*
X78654240Y-82107106D01*
X78784336Y-82168312D01*
X78711851Y-82198336D01*
X78482552Y-82351549D01*
X78287549Y-82546552D01*
X78134336Y-82775851D01*
X78060000Y-82955314D01*
X78060000Y-81379438D01*
X78104522Y-81503072D01*
X78166894Y-81619760D01*
X78407293Y-81687102D01*
X79195395Y-80899000D01*
X79554605Y-80899000D01*
X80342707Y-81687102D01*
X80583106Y-81619760D01*
X80700506Y-81370220D01*
X80766967Y-81102573D01*
X80779936Y-80827101D01*
X80738914Y-80554393D01*
X80645478Y-80294928D01*
X80583106Y-80178240D01*
X80342707Y-80110898D01*
X79554605Y-80899000D01*
X79195395Y-80899000D01*
X78407293Y-80110898D01*
X78166894Y-80178240D01*
X78060000Y-80405449D01*
X78060000Y-79931293D01*
X78586898Y-79931293D01*
X79375000Y-80719395D01*
X80163102Y-79931293D01*
X80095760Y-79690894D01*
X79846220Y-79573494D01*
X79578573Y-79507033D01*
X79303101Y-79494064D01*
X79030393Y-79535086D01*
X78770928Y-79628522D01*
X78654240Y-79690894D01*
X78586898Y-79931293D01*
X78060000Y-79931293D01*
X78060000Y-64637322D01*
X78063676Y-64600000D01*
X78060000Y-64562677D01*
X78060000Y-64562667D01*
X78049003Y-64451014D01*
X78005546Y-64307753D01*
X77951492Y-64206626D01*
X77934974Y-64175723D01*
X77863799Y-64088997D01*
X77840001Y-64059999D01*
X77811003Y-64036201D01*
X74604804Y-60830003D01*
X74581001Y-60800999D01*
X74465276Y-60706026D01*
X74333247Y-60635454D01*
X74189986Y-60591997D01*
X74078333Y-60581000D01*
X74078322Y-60581000D01*
X74041000Y-60577324D01*
X74003678Y-60581000D01*
X69148802Y-60581000D01*
X68127804Y-59560003D01*
X68104001Y-59530999D01*
X67988276Y-59436026D01*
X67856247Y-59365454D01*
X67712986Y-59321997D01*
X67601333Y-59311000D01*
X67601322Y-59311000D01*
X67564000Y-59307324D01*
X67526678Y-59311000D01*
X60508801Y-59311000D01*
X60673729Y-59146072D01*
X62087000Y-59146072D01*
X62211482Y-59133812D01*
X62331180Y-59097502D01*
X62441494Y-59038537D01*
X62538185Y-58959185D01*
X62617537Y-58862494D01*
X62676502Y-58752180D01*
X62712812Y-58632482D01*
X62725072Y-58508000D01*
X62725072Y-56808000D01*
X63448928Y-56808000D01*
X63448928Y-58508000D01*
X63461188Y-58632482D01*
X63497498Y-58752180D01*
X63556463Y-58862494D01*
X63635815Y-58959185D01*
X63732506Y-59038537D01*
X63842820Y-59097502D01*
X63962518Y-59133812D01*
X64087000Y-59146072D01*
X66087000Y-59146072D01*
X66211482Y-59133812D01*
X66331180Y-59097502D01*
X66441494Y-59038537D01*
X66538185Y-58959185D01*
X66548000Y-58947225D01*
X66557815Y-58959185D01*
X66654506Y-59038537D01*
X66764820Y-59097502D01*
X66884518Y-59133812D01*
X67009000Y-59146072D01*
X69009000Y-59146072D01*
X69133482Y-59133812D01*
X69253180Y-59097502D01*
X69363494Y-59038537D01*
X69460185Y-58959185D01*
X69539537Y-58862494D01*
X69598502Y-58752180D01*
X69634812Y-58632482D01*
X69647072Y-58508000D01*
X69647072Y-56808000D01*
X70370928Y-56808000D01*
X70370928Y-58508000D01*
X70383188Y-58632482D01*
X70419498Y-58752180D01*
X70478463Y-58862494D01*
X70557815Y-58959185D01*
X70654506Y-59038537D01*
X70764820Y-59097502D01*
X70884518Y-59133812D01*
X71009000Y-59146072D01*
X73009000Y-59146072D01*
X73133482Y-59133812D01*
X73253180Y-59097502D01*
X73363494Y-59038537D01*
X73460185Y-58959185D01*
X73539537Y-58862494D01*
X73598502Y-58752180D01*
X73634812Y-58632482D01*
X73647072Y-58508000D01*
X73647072Y-56808000D01*
X73634812Y-56683518D01*
X73598502Y-56563820D01*
X73539537Y-56453506D01*
X73460185Y-56356815D01*
X73363494Y-56277463D01*
X73253180Y-56218498D01*
X73133482Y-56182188D01*
X73009000Y-56169928D01*
X71009000Y-56169928D01*
X70884518Y-56182188D01*
X70764820Y-56218498D01*
X70654506Y-56277463D01*
X70557815Y-56356815D01*
X70478463Y-56453506D01*
X70419498Y-56563820D01*
X70383188Y-56683518D01*
X70370928Y-56808000D01*
X69647072Y-56808000D01*
X69634812Y-56683518D01*
X69598502Y-56563820D01*
X69539537Y-56453506D01*
X69460185Y-56356815D01*
X69363494Y-56277463D01*
X69253180Y-56218498D01*
X69133482Y-56182188D01*
X69009000Y-56169928D01*
X67009000Y-56169928D01*
X66884518Y-56182188D01*
X66764820Y-56218498D01*
X66654506Y-56277463D01*
X66557815Y-56356815D01*
X66548000Y-56368775D01*
X66538185Y-56356815D01*
X66441494Y-56277463D01*
X66331180Y-56218498D01*
X66211482Y-56182188D01*
X66087000Y-56169928D01*
X64087000Y-56169928D01*
X63962518Y-56182188D01*
X63842820Y-56218498D01*
X63732506Y-56277463D01*
X63635815Y-56356815D01*
X63556463Y-56453506D01*
X63497498Y-56563820D01*
X63461188Y-56683518D01*
X63448928Y-56808000D01*
X62725072Y-56808000D01*
X62712812Y-56683518D01*
X62676502Y-56563820D01*
X62617537Y-56453506D01*
X62538185Y-56356815D01*
X62441494Y-56277463D01*
X62331180Y-56218498D01*
X62211482Y-56182188D01*
X62087000Y-56169928D01*
X60087000Y-56169928D01*
X59962518Y-56182188D01*
X59842820Y-56218498D01*
X59732506Y-56277463D01*
X59635815Y-56356815D01*
X59556463Y-56453506D01*
X59497498Y-56563820D01*
X59461188Y-56683518D01*
X59448928Y-56808000D01*
X59448928Y-58221271D01*
X59359199Y-58311000D01*
X59334061Y-58311000D01*
X59134102Y-58350774D01*
X58945744Y-58428795D01*
X58776226Y-58542063D01*
X58632063Y-58686226D01*
X58518795Y-58855744D01*
X58440774Y-59044102D01*
X58401000Y-59244061D01*
X58401000Y-59311000D01*
X55917322Y-59311000D01*
X55880000Y-59307324D01*
X55842677Y-59311000D01*
X55842667Y-59311000D01*
X55731014Y-59321997D01*
X55587753Y-59365454D01*
X55455723Y-59436026D01*
X55383882Y-59494985D01*
X55339999Y-59530999D01*
X55316201Y-59559997D01*
X54549199Y-60327000D01*
X46796802Y-60327000D01*
X46734000Y-60264199D01*
X46734000Y-59908105D01*
X46985302Y-59804012D01*
X47334983Y-59570363D01*
X47501693Y-59403653D01*
X49741952Y-59403653D01*
X49897962Y-59719214D01*
X50272745Y-59910020D01*
X50677551Y-60024044D01*
X51096824Y-60056902D01*
X51514451Y-60007334D01*
X51914383Y-59877243D01*
X52210038Y-59719214D01*
X52366048Y-59403653D01*
X51054000Y-58091605D01*
X49741952Y-59403653D01*
X47501693Y-59403653D01*
X47632363Y-59272983D01*
X47866012Y-58923302D01*
X48026953Y-58534756D01*
X48109000Y-58122279D01*
X48109000Y-57954824D01*
X48909098Y-57954824D01*
X48958666Y-58372451D01*
X49088757Y-58772383D01*
X49246786Y-59068038D01*
X49562347Y-59224048D01*
X50874395Y-57912000D01*
X51233605Y-57912000D01*
X52545653Y-59224048D01*
X52861214Y-59068038D01*
X53052020Y-58693255D01*
X53166044Y-58288449D01*
X53198902Y-57869176D01*
X53149334Y-57451549D01*
X53019243Y-57051617D01*
X52861214Y-56755962D01*
X52545653Y-56599952D01*
X51233605Y-57912000D01*
X50874395Y-57912000D01*
X49562347Y-56599952D01*
X49246786Y-56755962D01*
X49055980Y-57130745D01*
X48941956Y-57535551D01*
X48909098Y-57954824D01*
X48109000Y-57954824D01*
X48109000Y-57701721D01*
X48026953Y-57289244D01*
X47866012Y-56900698D01*
X47632363Y-56551017D01*
X47501693Y-56420347D01*
X49741952Y-56420347D01*
X51054000Y-57732395D01*
X52366048Y-56420347D01*
X52210038Y-56104786D01*
X51835255Y-55913980D01*
X51430449Y-55799956D01*
X51011176Y-55767098D01*
X50593549Y-55816666D01*
X50193617Y-55946757D01*
X49897962Y-56104786D01*
X49741952Y-56420347D01*
X47501693Y-56420347D01*
X47334983Y-56253637D01*
X46985302Y-56019988D01*
X46596756Y-55859047D01*
X46184279Y-55777000D01*
X45763721Y-55777000D01*
X45351244Y-55859047D01*
X44962698Y-56019988D01*
X44613017Y-56253637D01*
X44315637Y-56551017D01*
X44081988Y-56900698D01*
X43921047Y-57289244D01*
X43839000Y-57701721D01*
X43839000Y-58122279D01*
X43921047Y-58534756D01*
X44081988Y-58923302D01*
X44315637Y-59272983D01*
X44613017Y-59570363D01*
X44962698Y-59804012D01*
X45214000Y-59908105D01*
X45214000Y-60541677D01*
X45210324Y-60579000D01*
X45214000Y-60616322D01*
X45214000Y-60616332D01*
X45224997Y-60727985D01*
X45239868Y-60777010D01*
X43083812Y-60777010D01*
X42356873Y-60050072D01*
X42394000Y-60050072D01*
X42518482Y-60037812D01*
X42638180Y-60001502D01*
X42748494Y-59942537D01*
X42845185Y-59863185D01*
X42924537Y-59766494D01*
X42983502Y-59656180D01*
X43019812Y-59536482D01*
X43032072Y-59412000D01*
X43032072Y-56412000D01*
X43019812Y-56287518D01*
X42983502Y-56167820D01*
X42924537Y-56057506D01*
X42845185Y-55960815D01*
X42748494Y-55881463D01*
X42638180Y-55822498D01*
X42518482Y-55786188D01*
X42394000Y-55773928D01*
X41377060Y-55773928D01*
X40719996Y-55116864D01*
X40684449Y-55073551D01*
X40511623Y-54931716D01*
X40314447Y-54826324D01*
X40100499Y-54761423D01*
X39933752Y-54745000D01*
X39933751Y-54745000D01*
X39878000Y-54739509D01*
X39822249Y-54745000D01*
X36885752Y-54745000D01*
X36830000Y-54739509D01*
X36774248Y-54745000D01*
X36607501Y-54761423D01*
X36393553Y-54826324D01*
X36196377Y-54931716D01*
X36023551Y-55073551D01*
X35988009Y-55116859D01*
X34945941Y-56158928D01*
X33175000Y-56158928D01*
X33050518Y-56171188D01*
X32930820Y-56207498D01*
X32820506Y-56266463D01*
X32723815Y-56345815D01*
X32644463Y-56442506D01*
X32585498Y-56552820D01*
X32549188Y-56672518D01*
X32536928Y-56797000D01*
X32536928Y-60297000D01*
X32549188Y-60421482D01*
X32585498Y-60541180D01*
X32644463Y-60651494D01*
X32723815Y-60748185D01*
X32820506Y-60827537D01*
X32879233Y-60858928D01*
X30970767Y-60858928D01*
X31029494Y-60827537D01*
X31126185Y-60748185D01*
X31205537Y-60651494D01*
X31264502Y-60541180D01*
X31300812Y-60421482D01*
X31313072Y-60297000D01*
X31310000Y-58832750D01*
X31151250Y-58674000D01*
X29052000Y-58674000D01*
X29052000Y-60773250D01*
X29210750Y-60932000D01*
X29882345Y-60933409D01*
X29820506Y-60966463D01*
X29723815Y-61045815D01*
X29644463Y-61142506D01*
X29585498Y-61252820D01*
X29549188Y-61372518D01*
X29536928Y-61497000D01*
X29536928Y-64997000D01*
X29549188Y-65121482D01*
X29585498Y-65241180D01*
X29644463Y-65351494D01*
X29723815Y-65448185D01*
X29820506Y-65527537D01*
X29930820Y-65586502D01*
X30050518Y-65622812D01*
X30175000Y-65635072D01*
X33675000Y-65635072D01*
X33714065Y-65631225D01*
X33662977Y-65837135D01*
X33650090Y-66112017D01*
X33691078Y-66384133D01*
X33784364Y-66643023D01*
X33846344Y-66758980D01*
X34086435Y-66825960D01*
X34872395Y-66040000D01*
X34858253Y-66025858D01*
X35037858Y-65846253D01*
X35052000Y-65860395D01*
X35837960Y-65074435D01*
X35770980Y-64834344D01*
X35521952Y-64717244D01*
X35254865Y-64650977D01*
X34979983Y-64638090D01*
X34707867Y-64679078D01*
X34448977Y-64772364D01*
X34333020Y-64834344D01*
X34313072Y-64905848D01*
X34313072Y-61497000D01*
X34300812Y-61372518D01*
X34264502Y-61252820D01*
X34205537Y-61142506D01*
X34126185Y-61045815D01*
X34029494Y-60966463D01*
X33970767Y-60935072D01*
X36675000Y-60935072D01*
X36799482Y-60922812D01*
X36919180Y-60886502D01*
X37029494Y-60827537D01*
X37126185Y-60748185D01*
X37205537Y-60651494D01*
X37264502Y-60541180D01*
X37300812Y-60421482D01*
X37313072Y-60297000D01*
X37313072Y-57015000D01*
X38755928Y-57015000D01*
X38755928Y-59412000D01*
X38768188Y-59536482D01*
X38804498Y-59656180D01*
X38863463Y-59766494D01*
X38942815Y-59863185D01*
X39039506Y-59942537D01*
X39149820Y-60001502D01*
X39269518Y-60037812D01*
X39394000Y-60050072D01*
X40239674Y-60050072D01*
X40259026Y-60086276D01*
X40330201Y-60173002D01*
X40354000Y-60202001D01*
X40382998Y-60225799D01*
X42205211Y-62048013D01*
X42229009Y-62077011D01*
X42258240Y-62101000D01*
X42344734Y-62171984D01*
X42476763Y-62242556D01*
X42620024Y-62286013D01*
X42769010Y-62300687D01*
X42806343Y-62297010D01*
X53053479Y-62297010D01*
X52976744Y-62328795D01*
X52807226Y-62442063D01*
X52663063Y-62586226D01*
X52549795Y-62755744D01*
X52471774Y-62944102D01*
X52432000Y-63144061D01*
X52432000Y-63347939D01*
X52471774Y-63547898D01*
X52549795Y-63736256D01*
X52663063Y-63905774D01*
X52707001Y-63949712D01*
X52707000Y-74234198D01*
X46732998Y-80208201D01*
X46704000Y-80231999D01*
X46680202Y-80260997D01*
X46680201Y-80260998D01*
X46609026Y-80347724D01*
X46538454Y-80479754D01*
X46494998Y-80623015D01*
X46480324Y-80772000D01*
X46484001Y-80809332D01*
X46484000Y-87030377D01*
X46480324Y-87067700D01*
X46484000Y-87105022D01*
X46484000Y-87105032D01*
X46494997Y-87216685D01*
X46527914Y-87325199D01*
X46538454Y-87359946D01*
X46609026Y-87491976D01*
X46636541Y-87525503D01*
X46703999Y-87607701D01*
X46733003Y-87631504D01*
X53667401Y-94565903D01*
X53667401Y-98442699D01*
X52508304Y-97283603D01*
X52484501Y-97254599D01*
X52368776Y-97159626D01*
X52236747Y-97089054D01*
X52093486Y-97045597D01*
X51981833Y-97034600D01*
X51981822Y-97034600D01*
X51944500Y-97030924D01*
X51907178Y-97034600D01*
X42076425Y-97034600D01*
X42039100Y-97030924D01*
X42001775Y-97034600D01*
X42001767Y-97034600D01*
X41890114Y-97045597D01*
X41746853Y-97089054D01*
X41614824Y-97159626D01*
X41499099Y-97254599D01*
X41475296Y-97283603D01*
X41348503Y-97410396D01*
X41319499Y-97434199D01*
X41270370Y-97494063D01*
X41224526Y-97549924D01*
X41177327Y-97638226D01*
X41153954Y-97681954D01*
X41110497Y-97825215D01*
X41099500Y-97936868D01*
X41099500Y-97936878D01*
X41095824Y-97974200D01*
X41099500Y-98011523D01*
X41099501Y-99819073D01*
X40642848Y-99588401D01*
X39981208Y-99403668D01*
X39296287Y-99350966D01*
X38614173Y-99432303D01*
X37960849Y-99644581D01*
X37361199Y-99979714D01*
X36838063Y-100424937D01*
X36485000Y-100870393D01*
X36485000Y-100058072D01*
X36500000Y-100058072D01*
X36624482Y-100045812D01*
X36744180Y-100009502D01*
X36854494Y-99950537D01*
X36951185Y-99871185D01*
X37030537Y-99774494D01*
X37089502Y-99664180D01*
X37125812Y-99544482D01*
X37138072Y-99420000D01*
X37138072Y-98120000D01*
X37125812Y-97995518D01*
X37089502Y-97875820D01*
X37030537Y-97765506D01*
X36951185Y-97668815D01*
X36854494Y-97589463D01*
X36744180Y-97530498D01*
X36624482Y-97494188D01*
X36500000Y-97481928D01*
X34950000Y-97481928D01*
X34825518Y-97494188D01*
X34705820Y-97530498D01*
X34595506Y-97589463D01*
X34498815Y-97668815D01*
X34419463Y-97765506D01*
X34360498Y-97875820D01*
X34324188Y-97995518D01*
X34322762Y-98010000D01*
X29177238Y-98010000D01*
X29175812Y-97995518D01*
X29139502Y-97875820D01*
X29080537Y-97765506D01*
X29001185Y-97668815D01*
X28904494Y-97589463D01*
X28794180Y-97530498D01*
X28674482Y-97494188D01*
X28550000Y-97481928D01*
X27434600Y-97481928D01*
X27434600Y-96660501D01*
X28286003Y-95809099D01*
X28315001Y-95785301D01*
X28409974Y-95669576D01*
X28469575Y-95558072D01*
X28550000Y-95558072D01*
X28674482Y-95545812D01*
X28767484Y-95517600D01*
X34099778Y-95517600D01*
X34137100Y-95521276D01*
X34174422Y-95517600D01*
X34174433Y-95517600D01*
X34286086Y-95506603D01*
X34429347Y-95463146D01*
X34539273Y-95404388D01*
X34595506Y-95450537D01*
X34705820Y-95509502D01*
X34825518Y-95545812D01*
X34950000Y-95558072D01*
X36500000Y-95558072D01*
X36624482Y-95545812D01*
X36744180Y-95509502D01*
X36854494Y-95450537D01*
X36951185Y-95371185D01*
X37030537Y-95274494D01*
X37089502Y-95164180D01*
X37125812Y-95044482D01*
X37138072Y-94920000D01*
X37138072Y-93620000D01*
X37125812Y-93495518D01*
X37089502Y-93375820D01*
X37030537Y-93265506D01*
X36951185Y-93168815D01*
X36937180Y-93157321D01*
X37592000Y-92502501D01*
X39382800Y-94293302D01*
X39406599Y-94322301D01*
X39522324Y-94417274D01*
X39654353Y-94487846D01*
X39797614Y-94531303D01*
X39909267Y-94542300D01*
X39909276Y-94542300D01*
X39946599Y-94545976D01*
X39983922Y-94542300D01*
X41601928Y-94542300D01*
X41601928Y-94920000D01*
X41614188Y-95044482D01*
X41650498Y-95164180D01*
X41709463Y-95274494D01*
X41788815Y-95371185D01*
X41885506Y-95450537D01*
X41995820Y-95509502D01*
X42115518Y-95545812D01*
X42240000Y-95558072D01*
X43790000Y-95558072D01*
X43914482Y-95545812D01*
X44034180Y-95509502D01*
X44144494Y-95450537D01*
X44241185Y-95371185D01*
X44320537Y-95274494D01*
X44379502Y-95164180D01*
X44415812Y-95044482D01*
X44428072Y-94920000D01*
X44428072Y-94542300D01*
X49062199Y-94542300D01*
X49300896Y-94780997D01*
X49324699Y-94810001D01*
X49397846Y-94870031D01*
X49440423Y-94904974D01*
X49530374Y-94953054D01*
X49556562Y-94967052D01*
X49564188Y-95044482D01*
X49600498Y-95164180D01*
X49659463Y-95274494D01*
X49738815Y-95371185D01*
X49835506Y-95450537D01*
X49945820Y-95509502D01*
X50065518Y-95545812D01*
X50190000Y-95558072D01*
X51740000Y-95558072D01*
X51864482Y-95545812D01*
X51984180Y-95509502D01*
X52094494Y-95450537D01*
X52191185Y-95371185D01*
X52270537Y-95274494D01*
X52329502Y-95164180D01*
X52365812Y-95044482D01*
X52378072Y-94920000D01*
X52378072Y-93620000D01*
X52365812Y-93495518D01*
X52329502Y-93375820D01*
X52270537Y-93265506D01*
X52191185Y-93168815D01*
X52094494Y-93089463D01*
X51984180Y-93030498D01*
X51864482Y-92994188D01*
X51740000Y-92981928D01*
X50190000Y-92981928D01*
X50065518Y-92994188D01*
X49945820Y-93030498D01*
X49835506Y-93089463D01*
X49779308Y-93135584D01*
X49669247Y-93076754D01*
X49525986Y-93033297D01*
X49414333Y-93022300D01*
X49414322Y-93022300D01*
X49377000Y-93018624D01*
X49339678Y-93022300D01*
X44007155Y-93022300D01*
X43914482Y-92994188D01*
X43790000Y-92981928D01*
X42240000Y-92981928D01*
X42115518Y-92994188D01*
X42022845Y-93022300D01*
X40261402Y-93022300D01*
X38352000Y-91112899D01*
X38352000Y-67212341D01*
X38482535Y-67125120D01*
X38677120Y-66930535D01*
X38830005Y-66701727D01*
X38862000Y-66624485D01*
X38893995Y-66701727D01*
X39046880Y-66930535D01*
X39241465Y-67125120D01*
X39470273Y-67278005D01*
X39724510Y-67383314D01*
X39994408Y-67437000D01*
X40269592Y-67437000D01*
X40539490Y-67383314D01*
X40793727Y-67278005D01*
X41022535Y-67125120D01*
X41217120Y-66930535D01*
X41370005Y-66701727D01*
X41402000Y-66624485D01*
X41433995Y-66701727D01*
X41586880Y-66930535D01*
X41781465Y-67125120D01*
X42010273Y-67278005D01*
X42264510Y-67383314D01*
X42534408Y-67437000D01*
X42809592Y-67437000D01*
X43079490Y-67383314D01*
X43333727Y-67278005D01*
X43562535Y-67125120D01*
X43757120Y-66930535D01*
X43910005Y-66701727D01*
X44015314Y-66447490D01*
X44069000Y-66177592D01*
X44069000Y-65902408D01*
X44015314Y-65632510D01*
X43910005Y-65378273D01*
X43757120Y-65149465D01*
X43562535Y-64954880D01*
X43333727Y-64801995D01*
X43079490Y-64696686D01*
X42809592Y-64643000D01*
X42534408Y-64643000D01*
X42264510Y-64696686D01*
X42010273Y-64801995D01*
X41781465Y-64954880D01*
X41586880Y-65149465D01*
X41433995Y-65378273D01*
X41402000Y-65455515D01*
X41370005Y-65378273D01*
X41217120Y-65149465D01*
X41022535Y-64954880D01*
X40793727Y-64801995D01*
X40539490Y-64696686D01*
X40269592Y-64643000D01*
X39994408Y-64643000D01*
X39724510Y-64696686D01*
X39470273Y-64801995D01*
X39241465Y-64954880D01*
X39046880Y-65149465D01*
X38893995Y-65378273D01*
X38862000Y-65455515D01*
X38830005Y-65378273D01*
X38677120Y-65149465D01*
X38482535Y-64954880D01*
X38253727Y-64801995D01*
X37999490Y-64696686D01*
X37729592Y-64643000D01*
X37454408Y-64643000D01*
X37184510Y-64696686D01*
X36930273Y-64801995D01*
X36701465Y-64954880D01*
X36506880Y-65149465D01*
X36353995Y-65378273D01*
X36324308Y-65449943D01*
X36319636Y-65436977D01*
X36257656Y-65321020D01*
X36017565Y-65254040D01*
X35231605Y-66040000D01*
X36017565Y-66825960D01*
X36257656Y-66758980D01*
X36321485Y-66623240D01*
X36353995Y-66701727D01*
X36506880Y-66930535D01*
X36701465Y-67125120D01*
X36832000Y-67212341D01*
X36832001Y-91112897D01*
X35213998Y-92730901D01*
X35185000Y-92754699D01*
X35161202Y-92783697D01*
X35161201Y-92783698D01*
X35090026Y-92870424D01*
X35030425Y-92981928D01*
X34950000Y-92981928D01*
X34825518Y-92994188D01*
X34705820Y-93030498D01*
X34595506Y-93089463D01*
X34498815Y-93168815D01*
X34419463Y-93265506D01*
X34360498Y-93375820D01*
X34324188Y-93495518D01*
X34316562Y-93572948D01*
X34200424Y-93635026D01*
X34084699Y-93729999D01*
X34060896Y-93759003D01*
X33822299Y-93997600D01*
X29188072Y-93997600D01*
X29188072Y-93620000D01*
X29175812Y-93495518D01*
X29139502Y-93375820D01*
X29080537Y-93265506D01*
X29001185Y-93168815D01*
X28904494Y-93089463D01*
X28794180Y-93030498D01*
X28674482Y-92994188D01*
X28550000Y-92981928D01*
X27000000Y-92981928D01*
X26875518Y-92994188D01*
X26755820Y-93030498D01*
X26645506Y-93089463D01*
X26548815Y-93168815D01*
X26469463Y-93265506D01*
X26410498Y-93375820D01*
X26374188Y-93495518D01*
X26361928Y-93620000D01*
X26361928Y-94920000D01*
X26374188Y-95044482D01*
X26410498Y-95164180D01*
X26469463Y-95274494D01*
X26548815Y-95371185D01*
X26562820Y-95382679D01*
X26163598Y-95781901D01*
X26134600Y-95805699D01*
X26110802Y-95834697D01*
X26110801Y-95834698D01*
X26039626Y-95921424D01*
X25969054Y-96053454D01*
X25925598Y-96196715D01*
X25910924Y-96345700D01*
X24790000Y-96345700D01*
X24790000Y-67005565D01*
X34266040Y-67005565D01*
X34333020Y-67245656D01*
X34582048Y-67362756D01*
X34849135Y-67429023D01*
X35124017Y-67441910D01*
X35396133Y-67400922D01*
X35655023Y-67307636D01*
X35770980Y-67245656D01*
X35837960Y-67005565D01*
X35052000Y-66219605D01*
X34266040Y-67005565D01*
X24790000Y-67005565D01*
X24790000Y-60297000D01*
X26536928Y-60297000D01*
X26549188Y-60421482D01*
X26585498Y-60541180D01*
X26644463Y-60651494D01*
X26723815Y-60748185D01*
X26820506Y-60827537D01*
X26930820Y-60886502D01*
X27050518Y-60922812D01*
X27175000Y-60935072D01*
X28639250Y-60932000D01*
X28798000Y-60773250D01*
X28798000Y-58674000D01*
X26698750Y-58674000D01*
X26540000Y-58832750D01*
X26536928Y-60297000D01*
X24790000Y-60297000D01*
X24790000Y-57182279D01*
X24827777Y-56797000D01*
X26536928Y-56797000D01*
X26540000Y-58261250D01*
X26698750Y-58420000D01*
X28798000Y-58420000D01*
X28798000Y-56320750D01*
X29052000Y-56320750D01*
X29052000Y-58420000D01*
X31151250Y-58420000D01*
X31310000Y-58261250D01*
X31313072Y-56797000D01*
X31300812Y-56672518D01*
X31264502Y-56552820D01*
X31205537Y-56442506D01*
X31126185Y-56345815D01*
X31029494Y-56266463D01*
X30919180Y-56207498D01*
X30799482Y-56171188D01*
X30675000Y-56158928D01*
X29210750Y-56162000D01*
X29052000Y-56320750D01*
X28798000Y-56320750D01*
X28639250Y-56162000D01*
X27175000Y-56158928D01*
X27050518Y-56171188D01*
X26930820Y-56207498D01*
X26820506Y-56266463D01*
X26723815Y-56345815D01*
X26644463Y-56442506D01*
X26585498Y-56552820D01*
X26549188Y-56672518D01*
X26536928Y-56797000D01*
X24827777Y-56797000D01*
X24853096Y-56538778D01*
X25030606Y-55950836D01*
X25318937Y-55408564D01*
X25707094Y-54932636D01*
X26180314Y-54541155D01*
X26720552Y-54249049D01*
X27307244Y-54067437D01*
X27948879Y-54000000D01*
X80625722Y-54000000D01*
X80524173Y-54012109D01*
X80524173Y-54012109D01*
G37*
X80524173Y-54012109D02*
X79870849Y-54224387D01*
X79271199Y-54559520D01*
X78748063Y-55004743D01*
X78321369Y-55543098D01*
X78007367Y-56154079D01*
X77818019Y-56814414D01*
X77760537Y-57498950D01*
X77837110Y-58181615D01*
X78044822Y-58836405D01*
X78375761Y-59438380D01*
X78817321Y-59964611D01*
X79352684Y-60395054D01*
X79961457Y-60713313D01*
X80620454Y-60907267D01*
X81304573Y-60969526D01*
X81987755Y-60897721D01*
X82643980Y-60694585D01*
X83248251Y-60367857D01*
X83777551Y-59929982D01*
X84211721Y-59397637D01*
X84430001Y-58987113D01*
X84430000Y-63532418D01*
X84430001Y-63532428D01*
X84430000Y-110213060D01*
X84156192Y-109731070D01*
X83707327Y-109211056D01*
X83166006Y-108788130D01*
X82552848Y-108478401D01*
X81891208Y-108293668D01*
X81206287Y-108240966D01*
X80524173Y-108322303D01*
X79870849Y-108534581D01*
X79271199Y-108869714D01*
X78748063Y-109314937D01*
X78321369Y-109853292D01*
X78007367Y-110464273D01*
X77818019Y-111124608D01*
X77760537Y-111809144D01*
X77837110Y-112491809D01*
X78044822Y-113146599D01*
X78375761Y-113748574D01*
X78817321Y-114274805D01*
X79352684Y-114705248D01*
X79744338Y-114910000D01*
X27972279Y-114910000D01*
X27328779Y-114846904D01*
X26740836Y-114669394D01*
X26198564Y-114381063D01*
X25722636Y-113992906D01*
X25331155Y-113519686D01*
X25039050Y-112979449D01*
X24857437Y-112392756D01*
X24790000Y-111751130D01*
X24790000Y-96345700D01*
X25910924Y-96345700D01*
X25914601Y-96383032D01*
X25914600Y-104856978D01*
X25910924Y-104894300D01*
X25914600Y-104931622D01*
X25914600Y-104931632D01*
X25925597Y-105043285D01*
X25969054Y-105186546D01*
X26039626Y-105318576D01*
X26054489Y-105336686D01*
X26134599Y-105434301D01*
X26163602Y-105458104D01*
X26562820Y-105857321D01*
X26548815Y-105868815D01*
X26469463Y-105965506D01*
X26410498Y-106075820D01*
X26374188Y-106195518D01*
X26361928Y-106320000D01*
X26361928Y-107620000D01*
X26374188Y-107744482D01*
X26410498Y-107864180D01*
X26469463Y-107974494D01*
X26548815Y-108071185D01*
X26645506Y-108150537D01*
X26755820Y-108209502D01*
X26875518Y-108245812D01*
X27000000Y-108258072D01*
X28550000Y-108258072D01*
X28674482Y-108245812D01*
X28794180Y-108209502D01*
X28904494Y-108150537D01*
X29001185Y-108071185D01*
X29080537Y-107974494D01*
X29139502Y-107864180D01*
X29175812Y-107744482D01*
X29188072Y-107620000D01*
X29188072Y-107242300D01*
X33822199Y-107242300D01*
X34060896Y-107480997D01*
X34084699Y-107510001D01*
X34157846Y-107570031D01*
X34200423Y-107604974D01*
X34316562Y-107667052D01*
X34324188Y-107744482D01*
X34360498Y-107864180D01*
X34419463Y-107974494D01*
X34498815Y-108071185D01*
X34595506Y-108150537D01*
X34705820Y-108209502D01*
X34825518Y-108245812D01*
X34950000Y-108258072D01*
X36500000Y-108258072D01*
X36624482Y-108245812D01*
X36744180Y-108209502D01*
X36854494Y-108150537D01*
X36951185Y-108071185D01*
X37030537Y-107974494D01*
X37089502Y-107864180D01*
X37125812Y-107744482D01*
X37127238Y-107730000D01*
X41612762Y-107730000D01*
X41614188Y-107744482D01*
X41650498Y-107864180D01*
X41709463Y-107974494D01*
X41788815Y-108071185D01*
X41885506Y-108150537D01*
X41995820Y-108209502D01*
X42115518Y-108245812D01*
X42240000Y-108258072D01*
X43790000Y-108258072D01*
X43914482Y-108245812D01*
X44034180Y-108209502D01*
X44144494Y-108150537D01*
X44241185Y-108071185D01*
X44320537Y-107974494D01*
X44379502Y-107864180D01*
X44415812Y-107744482D01*
X44417238Y-107730000D01*
X49562762Y-107730000D01*
X49564188Y-107744482D01*
X49600498Y-107864180D01*
X49659463Y-107974494D01*
X49738815Y-108071185D01*
X49835506Y-108150537D01*
X49945820Y-108209502D01*
X50065518Y-108245812D01*
X50190000Y-108258072D01*
X50324380Y-108258072D01*
X50263795Y-108348744D01*
X50185774Y-108537102D01*
X50146000Y-108737061D01*
X50146000Y-108940939D01*
X50185774Y-109140898D01*
X50263795Y-109329256D01*
X50377063Y-109498774D01*
X50521226Y-109642937D01*
X50690744Y-109756205D01*
X50879102Y-109834226D01*
X51079061Y-109874000D01*
X51282939Y-109874000D01*
X51482898Y-109834226D01*
X51671256Y-109756205D01*
X51840774Y-109642937D01*
X51984937Y-109498774D01*
X52098205Y-109329256D01*
X52176226Y-109140898D01*
X52216000Y-108940939D01*
X52216000Y-108737061D01*
X52176226Y-108537102D01*
X52098205Y-108348744D01*
X51999644Y-108201236D01*
X52094494Y-108150537D01*
X52191185Y-108071185D01*
X52270537Y-107974494D01*
X52329502Y-107864180D01*
X52365812Y-107744482D01*
X52378072Y-107620000D01*
X52378072Y-106320000D01*
X52365812Y-106195518D01*
X52329502Y-106075820D01*
X52270537Y-105965506D01*
X52191185Y-105868815D01*
X52094494Y-105789463D01*
X51984180Y-105730498D01*
X51864482Y-105694188D01*
X51740000Y-105681928D01*
X50190000Y-105681928D01*
X50065518Y-105694188D01*
X49945820Y-105730498D01*
X49835506Y-105789463D01*
X49738815Y-105868815D01*
X49659463Y-105965506D01*
X49600498Y-106075820D01*
X49564188Y-106195518D01*
X49562762Y-106210000D01*
X44417238Y-106210000D01*
X44415812Y-106195518D01*
X44379502Y-106075820D01*
X44320537Y-105965506D01*
X44241185Y-105868815D01*
X44144494Y-105789463D01*
X44034180Y-105730498D01*
X43914482Y-105694188D01*
X43790000Y-105681928D01*
X42240000Y-105681928D01*
X42169755Y-105688846D01*
X43056903Y-104801699D01*
X43085901Y-104777901D01*
X43112644Y-104745315D01*
X43180874Y-104662177D01*
X43251446Y-104530147D01*
X43263077Y-104491803D01*
X43294903Y-104386886D01*
X43305900Y-104275233D01*
X43305900Y-104275223D01*
X43309576Y-104237900D01*
X43305900Y-104200578D01*
X43305900Y-101183422D01*
X43309576Y-101146099D01*
X43305900Y-101108776D01*
X43305900Y-101108767D01*
X43294903Y-100997114D01*
X43251446Y-100853853D01*
X43180874Y-100721824D01*
X43085901Y-100606099D01*
X43056904Y-100582302D01*
X42619500Y-100144899D01*
X42619500Y-100058072D01*
X43790000Y-100058072D01*
X43914482Y-100045812D01*
X44034180Y-100009502D01*
X44144494Y-99950537D01*
X44190056Y-99913146D01*
X44241024Y-99954974D01*
X44373053Y-100025546D01*
X44516314Y-100069003D01*
X44627967Y-100080000D01*
X44627976Y-100080000D01*
X44665299Y-100083676D01*
X44702622Y-100080000D01*
X50282146Y-100080000D01*
X50330026Y-100169576D01*
X50425000Y-100285301D01*
X50453998Y-100309099D01*
X52629701Y-102484803D01*
X52629700Y-108896677D01*
X52626024Y-108934000D01*
X52629700Y-108971322D01*
X52629700Y-108971332D01*
X52640697Y-109082985D01*
X52667631Y-109171775D01*
X52684154Y-109226246D01*
X52754726Y-109358276D01*
X52763516Y-109368986D01*
X52849699Y-109474001D01*
X52878703Y-109497804D01*
X54090898Y-110710000D01*
X52367238Y-110710000D01*
X52365812Y-110695518D01*
X52329502Y-110575820D01*
X52270537Y-110465506D01*
X52191185Y-110368815D01*
X52094494Y-110289463D01*
X51984180Y-110230498D01*
X51864482Y-110194188D01*
X51740000Y-110181928D01*
X50190000Y-110181928D01*
X50065518Y-110194188D01*
X49945820Y-110230498D01*
X49835506Y-110289463D01*
X49738815Y-110368815D01*
X49659463Y-110465506D01*
X49600498Y-110575820D01*
X49564188Y-110695518D01*
X49562762Y-110710000D01*
X44417238Y-110710000D01*
X44415812Y-110695518D01*
X44379502Y-110575820D01*
X44320537Y-110465506D01*
X44241185Y-110368815D01*
X44144494Y-110289463D01*
X44034180Y-110230498D01*
X43914482Y-110194188D01*
X43790000Y-110181928D01*
X42240000Y-110181928D01*
X42115518Y-110194188D01*
X41995820Y-110230498D01*
X41885506Y-110289463D01*
X41788815Y-110368815D01*
X41709463Y-110465506D01*
X41650498Y-110575820D01*
X41614188Y-110695518D01*
X41601928Y-110820000D01*
X41601928Y-111685300D01*
X37138072Y-111685300D01*
X37138072Y-110820000D01*
X37125812Y-110695518D01*
X37089502Y-110575820D01*
X37030537Y-110465506D01*
X36951185Y-110368815D01*
X36854494Y-110289463D01*
X36744180Y-110230498D01*
X36624482Y-110194188D01*
X36500000Y-110181928D01*
X34950000Y-110181928D01*
X34825518Y-110194188D01*
X34705820Y-110230498D01*
X34595506Y-110289463D01*
X34498815Y-110368815D01*
X34419463Y-110465506D01*
X34360498Y-110575820D01*
X34324188Y-110695518D01*
X34311928Y-110820000D01*
X34311928Y-111197600D01*
X29677701Y-111197600D01*
X29439104Y-110959003D01*
X29415301Y-110929999D01*
X29299576Y-110835026D01*
X29183438Y-110772948D01*
X29175812Y-110695518D01*
X29139502Y-110575820D01*
X29080537Y-110465506D01*
X29001185Y-110368815D01*
X28904494Y-110289463D01*
X28794180Y-110230498D01*
X28674482Y-110194188D01*
X28550000Y-110181928D01*
X27000000Y-110181928D01*
X26875518Y-110194188D01*
X26755820Y-110230498D01*
X26645506Y-110289463D01*
X26548815Y-110368815D01*
X26469463Y-110465506D01*
X26410498Y-110575820D01*
X26374188Y-110695518D01*
X26361928Y-110820000D01*
X26361928Y-112120000D01*
X26374188Y-112244482D01*
X26410498Y-112364180D01*
X26469463Y-112474494D01*
X26548815Y-112571185D01*
X26645506Y-112650537D01*
X26755820Y-112709502D01*
X26875518Y-112745812D01*
X27000000Y-112758072D01*
X28550000Y-112758072D01*
X28674482Y-112745812D01*
X28794180Y-112709502D01*
X28904494Y-112650537D01*
X28960727Y-112604388D01*
X29070653Y-112663146D01*
X29213914Y-112706603D01*
X29362900Y-112721277D01*
X29400233Y-112717600D01*
X34732516Y-112717600D01*
X34825518Y-112745812D01*
X34950000Y-112758072D01*
X35030425Y-112758072D01*
X35090026Y-112869576D01*
X35184999Y-112985301D01*
X35300724Y-113080274D01*
X35432753Y-113150846D01*
X35576014Y-113194303D01*
X35687667Y-113205300D01*
X35725000Y-113208977D01*
X35762333Y-113205300D01*
X67857378Y-113205300D01*
X67894700Y-113208976D01*
X67932022Y-113205300D01*
X67932033Y-113205300D01*
X68043686Y-113194303D01*
X68186947Y-113150846D01*
X68318976Y-113080274D01*
X68434701Y-112985301D01*
X68458504Y-112956297D01*
X74803000Y-106611802D01*
X74803000Y-106817592D01*
X74856686Y-107087490D01*
X74961995Y-107341727D01*
X75114880Y-107570535D01*
X75309465Y-107765120D01*
X75538273Y-107918005D01*
X75615515Y-107950000D01*
X75538273Y-107981995D01*
X75309465Y-108134880D01*
X75114880Y-108329465D01*
X74961995Y-108558273D01*
X74856686Y-108812510D01*
X74803000Y-109082408D01*
X74803000Y-109357592D01*
X74856686Y-109627490D01*
X74961995Y-109881727D01*
X75114880Y-110110535D01*
X75309465Y-110305120D01*
X75538273Y-110458005D01*
X75792510Y-110563314D01*
X76062408Y-110617000D01*
X76337592Y-110617000D01*
X76607490Y-110563314D01*
X76861727Y-110458005D01*
X77090535Y-110305120D01*
X77285120Y-110110535D01*
X77438005Y-109881727D01*
X77543314Y-109627490D01*
X77597000Y-109357592D01*
X77597000Y-109082408D01*
X77543314Y-108812510D01*
X77438005Y-108558273D01*
X77285120Y-108329465D01*
X77090535Y-108134880D01*
X76861727Y-107981995D01*
X76784485Y-107950000D01*
X76861727Y-107918005D01*
X77090535Y-107765120D01*
X77285120Y-107570535D01*
X77438005Y-107341727D01*
X77543314Y-107087490D01*
X77597000Y-106817592D01*
X77597000Y-106542408D01*
X77543314Y-106272510D01*
X77438005Y-106018273D01*
X77285120Y-105789465D01*
X77090535Y-105594880D01*
X76861727Y-105441995D01*
X76784485Y-105410000D01*
X76861727Y-105378005D01*
X77090535Y-105225120D01*
X77285120Y-105030535D01*
X77438005Y-104801727D01*
X77543314Y-104547490D01*
X77597000Y-104277592D01*
X77597000Y-104002408D01*
X77543314Y-103732510D01*
X77438005Y-103478273D01*
X77285120Y-103249465D01*
X77090535Y-103054880D01*
X76861727Y-102901995D01*
X76784485Y-102870000D01*
X76861727Y-102838005D01*
X77090535Y-102685120D01*
X77285120Y-102490535D01*
X77438005Y-102261727D01*
X77543314Y-102007490D01*
X77597000Y-101737592D01*
X77597000Y-101462408D01*
X77543314Y-101192510D01*
X77438005Y-100938273D01*
X77285120Y-100709465D01*
X77090535Y-100514880D01*
X76861727Y-100361995D01*
X76784485Y-100330000D01*
X76861727Y-100298005D01*
X77090535Y-100145120D01*
X77285120Y-99950535D01*
X77438005Y-99721727D01*
X77543314Y-99467490D01*
X77597000Y-99197592D01*
X77597000Y-98922408D01*
X77543314Y-98652510D01*
X77438005Y-98398273D01*
X77285120Y-98169465D01*
X77090535Y-97974880D01*
X76861727Y-97821995D01*
X76784485Y-97790000D01*
X76861727Y-97758005D01*
X77090535Y-97605120D01*
X77285120Y-97410535D01*
X77438005Y-97181727D01*
X77543314Y-96927490D01*
X77597000Y-96657592D01*
X77597000Y-96382408D01*
X77543314Y-96112510D01*
X77438005Y-95858273D01*
X77285120Y-95629465D01*
X77090535Y-95434880D01*
X76861727Y-95281995D01*
X76784485Y-95250000D01*
X76861727Y-95218005D01*
X77090535Y-95065120D01*
X77285120Y-94870535D01*
X77438005Y-94641727D01*
X77543314Y-94387490D01*
X77597000Y-94117592D01*
X77597000Y-93842408D01*
X77543314Y-93572510D01*
X77438005Y-93318273D01*
X77285120Y-93089465D01*
X77090535Y-92894880D01*
X76861727Y-92741995D01*
X76784485Y-92710000D01*
X76861727Y-92678005D01*
X77090535Y-92525120D01*
X77285120Y-92330535D01*
X77438005Y-92101727D01*
X77543314Y-91847490D01*
X77597000Y-91577592D01*
X77597000Y-91302408D01*
X77543314Y-91032510D01*
X77500853Y-90930000D01*
X79972678Y-90930000D01*
X80010000Y-90933676D01*
X80047322Y-90930000D01*
X80047333Y-90930000D01*
X80158986Y-90919003D01*
X80302247Y-90875546D01*
X80434276Y-90804974D01*
X80550001Y-90710001D01*
X80573803Y-90680998D01*
X81283004Y-89971798D01*
X81312001Y-89948001D01*
X81406974Y-89832276D01*
X81477546Y-89700247D01*
X81521003Y-89556986D01*
X81532000Y-89445333D01*
X81532000Y-89445325D01*
X81535676Y-89408000D01*
X81532000Y-89370675D01*
X81532000Y-87413322D01*
X81535676Y-87375999D01*
X81532000Y-87338676D01*
X81532000Y-87338667D01*
X81521003Y-87227014D01*
X81477546Y-87083753D01*
X81406974Y-86951724D01*
X81312001Y-86835999D01*
X81283003Y-86812201D01*
X80743923Y-86273122D01*
X80775000Y-86116888D01*
X80775000Y-85841112D01*
X80721199Y-85570635D01*
X80615664Y-85315851D01*
X80462451Y-85086552D01*
X80267448Y-84891549D01*
X80038149Y-84738336D01*
X79967326Y-84709000D01*
X80038149Y-84679664D01*
X80267448Y-84526451D01*
X80462451Y-84331448D01*
X80615664Y-84102149D01*
X80721199Y-83847365D01*
X80775000Y-83576888D01*
X80775000Y-83301112D01*
X80721199Y-83030635D01*
X80615664Y-82775851D01*
X80462451Y-82546552D01*
X80267448Y-82351549D01*
X80038149Y-82198336D01*
X79973406Y-82171518D01*
X79979072Y-82169478D01*
X80095760Y-82107106D01*
X80163102Y-81866707D01*
X79375000Y-81078605D01*
X78586898Y-81866707D01*
X78654240Y-82107106D01*
X78784336Y-82168312D01*
X78711851Y-82198336D01*
X78482552Y-82351549D01*
X78287549Y-82546552D01*
X78134336Y-82775851D01*
X78060000Y-82955314D01*
X78060000Y-81379438D01*
X78104522Y-81503072D01*
X78166894Y-81619760D01*
X78407293Y-81687102D01*
X79195395Y-80899000D01*
X79554605Y-80899000D01*
X80342707Y-81687102D01*
X80583106Y-81619760D01*
X80700506Y-81370220D01*
X80766967Y-81102573D01*
X80779936Y-80827101D01*
X80738914Y-80554393D01*
X80645478Y-80294928D01*
X80583106Y-80178240D01*
X80342707Y-80110898D01*
X79554605Y-80899000D01*
X79195395Y-80899000D01*
X78407293Y-80110898D01*
X78166894Y-80178240D01*
X78060000Y-80405449D01*
X78060000Y-79931293D01*
X78586898Y-79931293D01*
X79375000Y-80719395D01*
X80163102Y-79931293D01*
X80095760Y-79690894D01*
X79846220Y-79573494D01*
X79578573Y-79507033D01*
X79303101Y-79494064D01*
X79030393Y-79535086D01*
X78770928Y-79628522D01*
X78654240Y-79690894D01*
X78586898Y-79931293D01*
X78060000Y-79931293D01*
X78060000Y-64637322D01*
X78063676Y-64600000D01*
X78060000Y-64562677D01*
X78060000Y-64562667D01*
X78049003Y-64451014D01*
X78005546Y-64307753D01*
X77951492Y-64206626D01*
X77934974Y-64175723D01*
X77863799Y-64088997D01*
X77840001Y-64059999D01*
X77811003Y-64036201D01*
X74604804Y-60830003D01*
X74581001Y-60800999D01*
X74465276Y-60706026D01*
X74333247Y-60635454D01*
X74189986Y-60591997D01*
X74078333Y-60581000D01*
X74078322Y-60581000D01*
X74041000Y-60577324D01*
X74003678Y-60581000D01*
X69148802Y-60581000D01*
X68127804Y-59560003D01*
X68104001Y-59530999D01*
X67988276Y-59436026D01*
X67856247Y-59365454D01*
X67712986Y-59321997D01*
X67601333Y-59311000D01*
X67601322Y-59311000D01*
X67564000Y-59307324D01*
X67526678Y-59311000D01*
X60508801Y-59311000D01*
X60673729Y-59146072D01*
X62087000Y-59146072D01*
X62211482Y-59133812D01*
X62331180Y-59097502D01*
X62441494Y-59038537D01*
X62538185Y-58959185D01*
X62617537Y-58862494D01*
X62676502Y-58752180D01*
X62712812Y-58632482D01*
X62725072Y-58508000D01*
X62725072Y-56808000D01*
X63448928Y-56808000D01*
X63448928Y-58508000D01*
X63461188Y-58632482D01*
X63497498Y-58752180D01*
X63556463Y-58862494D01*
X63635815Y-58959185D01*
X63732506Y-59038537D01*
X63842820Y-59097502D01*
X63962518Y-59133812D01*
X64087000Y-59146072D01*
X66087000Y-59146072D01*
X66211482Y-59133812D01*
X66331180Y-59097502D01*
X66441494Y-59038537D01*
X66538185Y-58959185D01*
X66548000Y-58947225D01*
X66557815Y-58959185D01*
X66654506Y-59038537D01*
X66764820Y-59097502D01*
X66884518Y-59133812D01*
X67009000Y-59146072D01*
X69009000Y-59146072D01*
X69133482Y-59133812D01*
X69253180Y-59097502D01*
X69363494Y-59038537D01*
X69460185Y-58959185D01*
X69539537Y-58862494D01*
X69598502Y-58752180D01*
X69634812Y-58632482D01*
X69647072Y-58508000D01*
X69647072Y-56808000D01*
X70370928Y-56808000D01*
X70370928Y-58508000D01*
X70383188Y-58632482D01*
X70419498Y-58752180D01*
X70478463Y-58862494D01*
X70557815Y-58959185D01*
X70654506Y-59038537D01*
X70764820Y-59097502D01*
X70884518Y-59133812D01*
X71009000Y-59146072D01*
X73009000Y-59146072D01*
X73133482Y-59133812D01*
X73253180Y-59097502D01*
X73363494Y-59038537D01*
X73460185Y-58959185D01*
X73539537Y-58862494D01*
X73598502Y-58752180D01*
X73634812Y-58632482D01*
X73647072Y-58508000D01*
X73647072Y-56808000D01*
X73634812Y-56683518D01*
X73598502Y-56563820D01*
X73539537Y-56453506D01*
X73460185Y-56356815D01*
X73363494Y-56277463D01*
X73253180Y-56218498D01*
X73133482Y-56182188D01*
X73009000Y-56169928D01*
X71009000Y-56169928D01*
X70884518Y-56182188D01*
X70764820Y-56218498D01*
X70654506Y-56277463D01*
X70557815Y-56356815D01*
X70478463Y-56453506D01*
X70419498Y-56563820D01*
X70383188Y-56683518D01*
X70370928Y-56808000D01*
X69647072Y-56808000D01*
X69634812Y-56683518D01*
X69598502Y-56563820D01*
X69539537Y-56453506D01*
X69460185Y-56356815D01*
X69363494Y-56277463D01*
X69253180Y-56218498D01*
X69133482Y-56182188D01*
X69009000Y-56169928D01*
X67009000Y-56169928D01*
X66884518Y-56182188D01*
X66764820Y-56218498D01*
X66654506Y-56277463D01*
X66557815Y-56356815D01*
X66548000Y-56368775D01*
X66538185Y-56356815D01*
X66441494Y-56277463D01*
X66331180Y-56218498D01*
X66211482Y-56182188D01*
X66087000Y-56169928D01*
X64087000Y-56169928D01*
X63962518Y-56182188D01*
X63842820Y-56218498D01*
X63732506Y-56277463D01*
X63635815Y-56356815D01*
X63556463Y-56453506D01*
X63497498Y-56563820D01*
X63461188Y-56683518D01*
X63448928Y-56808000D01*
X62725072Y-56808000D01*
X62712812Y-56683518D01*
X62676502Y-56563820D01*
X62617537Y-56453506D01*
X62538185Y-56356815D01*
X62441494Y-56277463D01*
X62331180Y-56218498D01*
X62211482Y-56182188D01*
X62087000Y-56169928D01*
X60087000Y-56169928D01*
X59962518Y-56182188D01*
X59842820Y-56218498D01*
X59732506Y-56277463D01*
X59635815Y-56356815D01*
X59556463Y-56453506D01*
X59497498Y-56563820D01*
X59461188Y-56683518D01*
X59448928Y-56808000D01*
X59448928Y-58221271D01*
X59359199Y-58311000D01*
X59334061Y-58311000D01*
X59134102Y-58350774D01*
X58945744Y-58428795D01*
X58776226Y-58542063D01*
X58632063Y-58686226D01*
X58518795Y-58855744D01*
X58440774Y-59044102D01*
X58401000Y-59244061D01*
X58401000Y-59311000D01*
X55917322Y-59311000D01*
X55880000Y-59307324D01*
X55842677Y-59311000D01*
X55842667Y-59311000D01*
X55731014Y-59321997D01*
X55587753Y-59365454D01*
X55455723Y-59436026D01*
X55383882Y-59494985D01*
X55339999Y-59530999D01*
X55316201Y-59559997D01*
X54549199Y-60327000D01*
X46796802Y-60327000D01*
X46734000Y-60264199D01*
X46734000Y-59908105D01*
X46985302Y-59804012D01*
X47334983Y-59570363D01*
X47501693Y-59403653D01*
X49741952Y-59403653D01*
X49897962Y-59719214D01*
X50272745Y-59910020D01*
X50677551Y-60024044D01*
X51096824Y-60056902D01*
X51514451Y-60007334D01*
X51914383Y-59877243D01*
X52210038Y-59719214D01*
X52366048Y-59403653D01*
X51054000Y-58091605D01*
X49741952Y-59403653D01*
X47501693Y-59403653D01*
X47632363Y-59272983D01*
X47866012Y-58923302D01*
X48026953Y-58534756D01*
X48109000Y-58122279D01*
X48109000Y-57954824D01*
X48909098Y-57954824D01*
X48958666Y-58372451D01*
X49088757Y-58772383D01*
X49246786Y-59068038D01*
X49562347Y-59224048D01*
X50874395Y-57912000D01*
X51233605Y-57912000D01*
X52545653Y-59224048D01*
X52861214Y-59068038D01*
X53052020Y-58693255D01*
X53166044Y-58288449D01*
X53198902Y-57869176D01*
X53149334Y-57451549D01*
X53019243Y-57051617D01*
X52861214Y-56755962D01*
X52545653Y-56599952D01*
X51233605Y-57912000D01*
X50874395Y-57912000D01*
X49562347Y-56599952D01*
X49246786Y-56755962D01*
X49055980Y-57130745D01*
X48941956Y-57535551D01*
X48909098Y-57954824D01*
X48109000Y-57954824D01*
X48109000Y-57701721D01*
X48026953Y-57289244D01*
X47866012Y-56900698D01*
X47632363Y-56551017D01*
X47501693Y-56420347D01*
X49741952Y-56420347D01*
X51054000Y-57732395D01*
X52366048Y-56420347D01*
X52210038Y-56104786D01*
X51835255Y-55913980D01*
X51430449Y-55799956D01*
X51011176Y-55767098D01*
X50593549Y-55816666D01*
X50193617Y-55946757D01*
X49897962Y-56104786D01*
X49741952Y-56420347D01*
X47501693Y-56420347D01*
X47334983Y-56253637D01*
X46985302Y-56019988D01*
X46596756Y-55859047D01*
X46184279Y-55777000D01*
X45763721Y-55777000D01*
X45351244Y-55859047D01*
X44962698Y-56019988D01*
X44613017Y-56253637D01*
X44315637Y-56551017D01*
X44081988Y-56900698D01*
X43921047Y-57289244D01*
X43839000Y-57701721D01*
X43839000Y-58122279D01*
X43921047Y-58534756D01*
X44081988Y-58923302D01*
X44315637Y-59272983D01*
X44613017Y-59570363D01*
X44962698Y-59804012D01*
X45214000Y-59908105D01*
X45214000Y-60541677D01*
X45210324Y-60579000D01*
X45214000Y-60616322D01*
X45214000Y-60616332D01*
X45224997Y-60727985D01*
X45239868Y-60777010D01*
X43083812Y-60777010D01*
X42356873Y-60050072D01*
X42394000Y-60050072D01*
X42518482Y-60037812D01*
X42638180Y-60001502D01*
X42748494Y-59942537D01*
X42845185Y-59863185D01*
X42924537Y-59766494D01*
X42983502Y-59656180D01*
X43019812Y-59536482D01*
X43032072Y-59412000D01*
X43032072Y-56412000D01*
X43019812Y-56287518D01*
X42983502Y-56167820D01*
X42924537Y-56057506D01*
X42845185Y-55960815D01*
X42748494Y-55881463D01*
X42638180Y-55822498D01*
X42518482Y-55786188D01*
X42394000Y-55773928D01*
X41377060Y-55773928D01*
X40719996Y-55116864D01*
X40684449Y-55073551D01*
X40511623Y-54931716D01*
X40314447Y-54826324D01*
X40100499Y-54761423D01*
X39933752Y-54745000D01*
X39933751Y-54745000D01*
X39878000Y-54739509D01*
X39822249Y-54745000D01*
X36885752Y-54745000D01*
X36830000Y-54739509D01*
X36774248Y-54745000D01*
X36607501Y-54761423D01*
X36393553Y-54826324D01*
X36196377Y-54931716D01*
X36023551Y-55073551D01*
X35988009Y-55116859D01*
X34945941Y-56158928D01*
X33175000Y-56158928D01*
X33050518Y-56171188D01*
X32930820Y-56207498D01*
X32820506Y-56266463D01*
X32723815Y-56345815D01*
X32644463Y-56442506D01*
X32585498Y-56552820D01*
X32549188Y-56672518D01*
X32536928Y-56797000D01*
X32536928Y-60297000D01*
X32549188Y-60421482D01*
X32585498Y-60541180D01*
X32644463Y-60651494D01*
X32723815Y-60748185D01*
X32820506Y-60827537D01*
X32879233Y-60858928D01*
X30970767Y-60858928D01*
X31029494Y-60827537D01*
X31126185Y-60748185D01*
X31205537Y-60651494D01*
X31264502Y-60541180D01*
X31300812Y-60421482D01*
X31313072Y-60297000D01*
X31310000Y-58832750D01*
X31151250Y-58674000D01*
X29052000Y-58674000D01*
X29052000Y-60773250D01*
X29210750Y-60932000D01*
X29882345Y-60933409D01*
X29820506Y-60966463D01*
X29723815Y-61045815D01*
X29644463Y-61142506D01*
X29585498Y-61252820D01*
X29549188Y-61372518D01*
X29536928Y-61497000D01*
X29536928Y-64997000D01*
X29549188Y-65121482D01*
X29585498Y-65241180D01*
X29644463Y-65351494D01*
X29723815Y-65448185D01*
X29820506Y-65527537D01*
X29930820Y-65586502D01*
X30050518Y-65622812D01*
X30175000Y-65635072D01*
X33675000Y-65635072D01*
X33714065Y-65631225D01*
X33662977Y-65837135D01*
X33650090Y-66112017D01*
X33691078Y-66384133D01*
X33784364Y-66643023D01*
X33846344Y-66758980D01*
X34086435Y-66825960D01*
X34872395Y-66040000D01*
X34858253Y-66025858D01*
X35037858Y-65846253D01*
X35052000Y-65860395D01*
X35837960Y-65074435D01*
X35770980Y-64834344D01*
X35521952Y-64717244D01*
X35254865Y-64650977D01*
X34979983Y-64638090D01*
X34707867Y-64679078D01*
X34448977Y-64772364D01*
X34333020Y-64834344D01*
X34313072Y-64905848D01*
X34313072Y-61497000D01*
X34300812Y-61372518D01*
X34264502Y-61252820D01*
X34205537Y-61142506D01*
X34126185Y-61045815D01*
X34029494Y-60966463D01*
X33970767Y-60935072D01*
X36675000Y-60935072D01*
X36799482Y-60922812D01*
X36919180Y-60886502D01*
X37029494Y-60827537D01*
X37126185Y-60748185D01*
X37205537Y-60651494D01*
X37264502Y-60541180D01*
X37300812Y-60421482D01*
X37313072Y-60297000D01*
X37313072Y-57015000D01*
X38755928Y-57015000D01*
X38755928Y-59412000D01*
X38768188Y-59536482D01*
X38804498Y-59656180D01*
X38863463Y-59766494D01*
X38942815Y-59863185D01*
X39039506Y-59942537D01*
X39149820Y-60001502D01*
X39269518Y-60037812D01*
X39394000Y-60050072D01*
X40239674Y-60050072D01*
X40259026Y-60086276D01*
X40330201Y-60173002D01*
X40354000Y-60202001D01*
X40382998Y-60225799D01*
X42205211Y-62048013D01*
X42229009Y-62077011D01*
X42258240Y-62101000D01*
X42344734Y-62171984D01*
X42476763Y-62242556D01*
X42620024Y-62286013D01*
X42769010Y-62300687D01*
X42806343Y-62297010D01*
X53053479Y-62297010D01*
X52976744Y-62328795D01*
X52807226Y-62442063D01*
X52663063Y-62586226D01*
X52549795Y-62755744D01*
X52471774Y-62944102D01*
X52432000Y-63144061D01*
X52432000Y-63347939D01*
X52471774Y-63547898D01*
X52549795Y-63736256D01*
X52663063Y-63905774D01*
X52707001Y-63949712D01*
X52707000Y-74234198D01*
X46732998Y-80208201D01*
X46704000Y-80231999D01*
X46680202Y-80260997D01*
X46680201Y-80260998D01*
X46609026Y-80347724D01*
X46538454Y-80479754D01*
X46494998Y-80623015D01*
X46480324Y-80772000D01*
X46484001Y-80809332D01*
X46484000Y-87030377D01*
X46480324Y-87067700D01*
X46484000Y-87105022D01*
X46484000Y-87105032D01*
X46494997Y-87216685D01*
X46527914Y-87325199D01*
X46538454Y-87359946D01*
X46609026Y-87491976D01*
X46636541Y-87525503D01*
X46703999Y-87607701D01*
X46733003Y-87631504D01*
X53667401Y-94565903D01*
X53667401Y-98442699D01*
X52508304Y-97283603D01*
X52484501Y-97254599D01*
X52368776Y-97159626D01*
X52236747Y-97089054D01*
X52093486Y-97045597D01*
X51981833Y-97034600D01*
X51981822Y-97034600D01*
X51944500Y-97030924D01*
X51907178Y-97034600D01*
X42076425Y-97034600D01*
X42039100Y-97030924D01*
X42001775Y-97034600D01*
X42001767Y-97034600D01*
X41890114Y-97045597D01*
X41746853Y-97089054D01*
X41614824Y-97159626D01*
X41499099Y-97254599D01*
X41475296Y-97283603D01*
X41348503Y-97410396D01*
X41319499Y-97434199D01*
X41270370Y-97494063D01*
X41224526Y-97549924D01*
X41177327Y-97638226D01*
X41153954Y-97681954D01*
X41110497Y-97825215D01*
X41099500Y-97936868D01*
X41099500Y-97936878D01*
X41095824Y-97974200D01*
X41099500Y-98011523D01*
X41099501Y-99819073D01*
X40642848Y-99588401D01*
X39981208Y-99403668D01*
X39296287Y-99350966D01*
X38614173Y-99432303D01*
X37960849Y-99644581D01*
X37361199Y-99979714D01*
X36838063Y-100424937D01*
X36485000Y-100870393D01*
X36485000Y-100058072D01*
X36500000Y-100058072D01*
X36624482Y-100045812D01*
X36744180Y-100009502D01*
X36854494Y-99950537D01*
X36951185Y-99871185D01*
X37030537Y-99774494D01*
X37089502Y-99664180D01*
X37125812Y-99544482D01*
X37138072Y-99420000D01*
X37138072Y-98120000D01*
X37125812Y-97995518D01*
X37089502Y-97875820D01*
X37030537Y-97765506D01*
X36951185Y-97668815D01*
X36854494Y-97589463D01*
X36744180Y-97530498D01*
X36624482Y-97494188D01*
X36500000Y-97481928D01*
X34950000Y-97481928D01*
X34825518Y-97494188D01*
X34705820Y-97530498D01*
X34595506Y-97589463D01*
X34498815Y-97668815D01*
X34419463Y-97765506D01*
X34360498Y-97875820D01*
X34324188Y-97995518D01*
X34322762Y-98010000D01*
X29177238Y-98010000D01*
X29175812Y-97995518D01*
X29139502Y-97875820D01*
X29080537Y-97765506D01*
X29001185Y-97668815D01*
X28904494Y-97589463D01*
X28794180Y-97530498D01*
X28674482Y-97494188D01*
X28550000Y-97481928D01*
X27434600Y-97481928D01*
X27434600Y-96660501D01*
X28286003Y-95809099D01*
X28315001Y-95785301D01*
X28409974Y-95669576D01*
X28469575Y-95558072D01*
X28550000Y-95558072D01*
X28674482Y-95545812D01*
X28767484Y-95517600D01*
X34099778Y-95517600D01*
X34137100Y-95521276D01*
X34174422Y-95517600D01*
X34174433Y-95517600D01*
X34286086Y-95506603D01*
X34429347Y-95463146D01*
X34539273Y-95404388D01*
X34595506Y-95450537D01*
X34705820Y-95509502D01*
X34825518Y-95545812D01*
X34950000Y-95558072D01*
X36500000Y-95558072D01*
X36624482Y-95545812D01*
X36744180Y-95509502D01*
X36854494Y-95450537D01*
X36951185Y-95371185D01*
X37030537Y-95274494D01*
X37089502Y-95164180D01*
X37125812Y-95044482D01*
X37138072Y-94920000D01*
X37138072Y-93620000D01*
X37125812Y-93495518D01*
X37089502Y-93375820D01*
X37030537Y-93265506D01*
X36951185Y-93168815D01*
X36937180Y-93157321D01*
X37592000Y-92502501D01*
X39382800Y-94293302D01*
X39406599Y-94322301D01*
X39522324Y-94417274D01*
X39654353Y-94487846D01*
X39797614Y-94531303D01*
X39909267Y-94542300D01*
X39909276Y-94542300D01*
X39946599Y-94545976D01*
X39983922Y-94542300D01*
X41601928Y-94542300D01*
X41601928Y-94920000D01*
X41614188Y-95044482D01*
X41650498Y-95164180D01*
X41709463Y-95274494D01*
X41788815Y-95371185D01*
X41885506Y-95450537D01*
X41995820Y-95509502D01*
X42115518Y-95545812D01*
X42240000Y-95558072D01*
X43790000Y-95558072D01*
X43914482Y-95545812D01*
X44034180Y-95509502D01*
X44144494Y-95450537D01*
X44241185Y-95371185D01*
X44320537Y-95274494D01*
X44379502Y-95164180D01*
X44415812Y-95044482D01*
X44428072Y-94920000D01*
X44428072Y-94542300D01*
X49062199Y-94542300D01*
X49300896Y-94780997D01*
X49324699Y-94810001D01*
X49397846Y-94870031D01*
X49440423Y-94904974D01*
X49530374Y-94953054D01*
X49556562Y-94967052D01*
X49564188Y-95044482D01*
X49600498Y-95164180D01*
X49659463Y-95274494D01*
X49738815Y-95371185D01*
X49835506Y-95450537D01*
X49945820Y-95509502D01*
X50065518Y-95545812D01*
X50190000Y-95558072D01*
X51740000Y-95558072D01*
X51864482Y-95545812D01*
X51984180Y-95509502D01*
X52094494Y-95450537D01*
X52191185Y-95371185D01*
X52270537Y-95274494D01*
X52329502Y-95164180D01*
X52365812Y-95044482D01*
X52378072Y-94920000D01*
X52378072Y-93620000D01*
X52365812Y-93495518D01*
X52329502Y-93375820D01*
X52270537Y-93265506D01*
X52191185Y-93168815D01*
X52094494Y-93089463D01*
X51984180Y-93030498D01*
X51864482Y-92994188D01*
X51740000Y-92981928D01*
X50190000Y-92981928D01*
X50065518Y-92994188D01*
X49945820Y-93030498D01*
X49835506Y-93089463D01*
X49779308Y-93135584D01*
X49669247Y-93076754D01*
X49525986Y-93033297D01*
X49414333Y-93022300D01*
X49414322Y-93022300D01*
X49377000Y-93018624D01*
X49339678Y-93022300D01*
X44007155Y-93022300D01*
X43914482Y-92994188D01*
X43790000Y-92981928D01*
X42240000Y-92981928D01*
X42115518Y-92994188D01*
X42022845Y-93022300D01*
X40261402Y-93022300D01*
X38352000Y-91112899D01*
X38352000Y-67212341D01*
X38482535Y-67125120D01*
X38677120Y-66930535D01*
X38830005Y-66701727D01*
X38862000Y-66624485D01*
X38893995Y-66701727D01*
X39046880Y-66930535D01*
X39241465Y-67125120D01*
X39470273Y-67278005D01*
X39724510Y-67383314D01*
X39994408Y-67437000D01*
X40269592Y-67437000D01*
X40539490Y-67383314D01*
X40793727Y-67278005D01*
X41022535Y-67125120D01*
X41217120Y-66930535D01*
X41370005Y-66701727D01*
X41402000Y-66624485D01*
X41433995Y-66701727D01*
X41586880Y-66930535D01*
X41781465Y-67125120D01*
X42010273Y-67278005D01*
X42264510Y-67383314D01*
X42534408Y-67437000D01*
X42809592Y-67437000D01*
X43079490Y-67383314D01*
X43333727Y-67278005D01*
X43562535Y-67125120D01*
X43757120Y-66930535D01*
X43910005Y-66701727D01*
X44015314Y-66447490D01*
X44069000Y-66177592D01*
X44069000Y-65902408D01*
X44015314Y-65632510D01*
X43910005Y-65378273D01*
X43757120Y-65149465D01*
X43562535Y-64954880D01*
X43333727Y-64801995D01*
X43079490Y-64696686D01*
X42809592Y-64643000D01*
X42534408Y-64643000D01*
X42264510Y-64696686D01*
X42010273Y-64801995D01*
X41781465Y-64954880D01*
X41586880Y-65149465D01*
X41433995Y-65378273D01*
X41402000Y-65455515D01*
X41370005Y-65378273D01*
X41217120Y-65149465D01*
X41022535Y-64954880D01*
X40793727Y-64801995D01*
X40539490Y-64696686D01*
X40269592Y-64643000D01*
X39994408Y-64643000D01*
X39724510Y-64696686D01*
X39470273Y-64801995D01*
X39241465Y-64954880D01*
X39046880Y-65149465D01*
X38893995Y-65378273D01*
X38862000Y-65455515D01*
X38830005Y-65378273D01*
X38677120Y-65149465D01*
X38482535Y-64954880D01*
X38253727Y-64801995D01*
X37999490Y-64696686D01*
X37729592Y-64643000D01*
X37454408Y-64643000D01*
X37184510Y-64696686D01*
X36930273Y-64801995D01*
X36701465Y-64954880D01*
X36506880Y-65149465D01*
X36353995Y-65378273D01*
X36324308Y-65449943D01*
X36319636Y-65436977D01*
X36257656Y-65321020D01*
X36017565Y-65254040D01*
X35231605Y-66040000D01*
X36017565Y-66825960D01*
X36257656Y-66758980D01*
X36321485Y-66623240D01*
X36353995Y-66701727D01*
X36506880Y-66930535D01*
X36701465Y-67125120D01*
X36832000Y-67212341D01*
X36832001Y-91112897D01*
X35213998Y-92730901D01*
X35185000Y-92754699D01*
X35161202Y-92783697D01*
X35161201Y-92783698D01*
X35090026Y-92870424D01*
X35030425Y-92981928D01*
X34950000Y-92981928D01*
X34825518Y-92994188D01*
X34705820Y-93030498D01*
X34595506Y-93089463D01*
X34498815Y-93168815D01*
X34419463Y-93265506D01*
X34360498Y-93375820D01*
X34324188Y-93495518D01*
X34316562Y-93572948D01*
X34200424Y-93635026D01*
X34084699Y-93729999D01*
X34060896Y-93759003D01*
X33822299Y-93997600D01*
X29188072Y-93997600D01*
X29188072Y-93620000D01*
X29175812Y-93495518D01*
X29139502Y-93375820D01*
X29080537Y-93265506D01*
X29001185Y-93168815D01*
X28904494Y-93089463D01*
X28794180Y-93030498D01*
X28674482Y-92994188D01*
X28550000Y-92981928D01*
X27000000Y-92981928D01*
X26875518Y-92994188D01*
X26755820Y-93030498D01*
X26645506Y-93089463D01*
X26548815Y-93168815D01*
X26469463Y-93265506D01*
X26410498Y-93375820D01*
X26374188Y-93495518D01*
X26361928Y-93620000D01*
X26361928Y-94920000D01*
X26374188Y-95044482D01*
X26410498Y-95164180D01*
X26469463Y-95274494D01*
X26548815Y-95371185D01*
X26562820Y-95382679D01*
X26163598Y-95781901D01*
X26134600Y-95805699D01*
X26110802Y-95834697D01*
X26110801Y-95834698D01*
X26039626Y-95921424D01*
X25969054Y-96053454D01*
X25925598Y-96196715D01*
X25910924Y-96345700D01*
X24790000Y-96345700D01*
X24790000Y-67005565D01*
X34266040Y-67005565D01*
X34333020Y-67245656D01*
X34582048Y-67362756D01*
X34849135Y-67429023D01*
X35124017Y-67441910D01*
X35396133Y-67400922D01*
X35655023Y-67307636D01*
X35770980Y-67245656D01*
X35837960Y-67005565D01*
X35052000Y-66219605D01*
X34266040Y-67005565D01*
X24790000Y-67005565D01*
X24790000Y-60297000D01*
X26536928Y-60297000D01*
X26549188Y-60421482D01*
X26585498Y-60541180D01*
X26644463Y-60651494D01*
X26723815Y-60748185D01*
X26820506Y-60827537D01*
X26930820Y-60886502D01*
X27050518Y-60922812D01*
X27175000Y-60935072D01*
X28639250Y-60932000D01*
X28798000Y-60773250D01*
X28798000Y-58674000D01*
X26698750Y-58674000D01*
X26540000Y-58832750D01*
X26536928Y-60297000D01*
X24790000Y-60297000D01*
X24790000Y-57182279D01*
X24827777Y-56797000D01*
X26536928Y-56797000D01*
X26540000Y-58261250D01*
X26698750Y-58420000D01*
X28798000Y-58420000D01*
X28798000Y-56320750D01*
X29052000Y-56320750D01*
X29052000Y-58420000D01*
X31151250Y-58420000D01*
X31310000Y-58261250D01*
X31313072Y-56797000D01*
X31300812Y-56672518D01*
X31264502Y-56552820D01*
X31205537Y-56442506D01*
X31126185Y-56345815D01*
X31029494Y-56266463D01*
X30919180Y-56207498D01*
X30799482Y-56171188D01*
X30675000Y-56158928D01*
X29210750Y-56162000D01*
X29052000Y-56320750D01*
X28798000Y-56320750D01*
X28639250Y-56162000D01*
X27175000Y-56158928D01*
X27050518Y-56171188D01*
X26930820Y-56207498D01*
X26820506Y-56266463D01*
X26723815Y-56345815D01*
X26644463Y-56442506D01*
X26585498Y-56552820D01*
X26549188Y-56672518D01*
X26536928Y-56797000D01*
X24827777Y-56797000D01*
X24853096Y-56538778D01*
X25030606Y-55950836D01*
X25318937Y-55408564D01*
X25707094Y-54932636D01*
X26180314Y-54541155D01*
X26720552Y-54249049D01*
X27307244Y-54067437D01*
X27948879Y-54000000D01*
X80625722Y-54000000D01*
X80524173Y-54012109D01*
G36*
X58265428Y-78113030D02*
G01*
X58265428Y-79803500D01*
X58277688Y-79927982D01*
X58313998Y-80047680D01*
X58372963Y-80157994D01*
X58405900Y-80198128D01*
X58405901Y-83867068D01*
X58402224Y-83904400D01*
X58416898Y-84053385D01*
X58460354Y-84196646D01*
X58530926Y-84328676D01*
X58585707Y-84395426D01*
X58625900Y-84444401D01*
X58654898Y-84468199D01*
X59765699Y-85579000D01*
X59715061Y-85579000D01*
X59515102Y-85618774D01*
X59326744Y-85696795D01*
X59157226Y-85810063D01*
X59013063Y-85954226D01*
X58899795Y-86123744D01*
X58821774Y-86312102D01*
X58782000Y-86512061D01*
X58782000Y-86715939D01*
X58821774Y-86915898D01*
X58899795Y-87104256D01*
X58996385Y-87248813D01*
X57277000Y-88968199D01*
X57277000Y-88762408D01*
X57223314Y-88492510D01*
X57118005Y-88238273D01*
X56965120Y-88009465D01*
X56770535Y-87814880D01*
X56541727Y-87661995D01*
X56464485Y-87630000D01*
X56541727Y-87598005D01*
X56770535Y-87445120D01*
X56965120Y-87250535D01*
X57118005Y-87021727D01*
X57223314Y-86767490D01*
X57277000Y-86497592D01*
X57277000Y-86222408D01*
X57223314Y-85952510D01*
X57118005Y-85698273D01*
X56965120Y-85469465D01*
X56770535Y-85274880D01*
X56541727Y-85121995D01*
X56464485Y-85090000D01*
X56541727Y-85058005D01*
X56770535Y-84905120D01*
X56965120Y-84710535D01*
X57118005Y-84481727D01*
X57223314Y-84227490D01*
X57277000Y-83957592D01*
X57277000Y-83682408D01*
X57223314Y-83412510D01*
X57118005Y-83158273D01*
X56965120Y-82929465D01*
X56770535Y-82734880D01*
X56541727Y-82581995D01*
X56464485Y-82550000D01*
X56541727Y-82518005D01*
X56770535Y-82365120D01*
X56965120Y-82170535D01*
X57118005Y-81941727D01*
X57223314Y-81687490D01*
X57277000Y-81417592D01*
X57277000Y-81142408D01*
X57223314Y-80872510D01*
X57118005Y-80618273D01*
X56965120Y-80389465D01*
X56770535Y-80194880D01*
X56541727Y-80041995D01*
X56470057Y-80012308D01*
X56483023Y-80007636D01*
X56598980Y-79945656D01*
X56665960Y-79705565D01*
X55880000Y-78919605D01*
X55865858Y-78933748D01*
X55686253Y-78754143D01*
X55700395Y-78740000D01*
X56059605Y-78740000D01*
X56845565Y-79525960D01*
X57085656Y-79458980D01*
X57202756Y-79209952D01*
X57269023Y-78942865D01*
X57281910Y-78667983D01*
X57240922Y-78395867D01*
X57147636Y-78136977D01*
X57085656Y-78021020D01*
X56845565Y-77954040D01*
X56059605Y-78740000D01*
X55700395Y-78740000D01*
X55686253Y-78725858D01*
X55865858Y-78546253D01*
X55880000Y-78560395D01*
X56665960Y-77774435D01*
X56598980Y-77534344D01*
X56463240Y-77470515D01*
X56541727Y-77438005D01*
X56770535Y-77285120D01*
X56965120Y-77090535D01*
X57076397Y-76923998D01*
X58265428Y-78113030D01*
X58265428Y-78113030D01*
G37*
X58265428Y-78113030D02*
X58265428Y-79803500D01*
X58277688Y-79927982D01*
X58313998Y-80047680D01*
X58372963Y-80157994D01*
X58405900Y-80198128D01*
X58405901Y-83867068D01*
X58402224Y-83904400D01*
X58416898Y-84053385D01*
X58460354Y-84196646D01*
X58530926Y-84328676D01*
X58585707Y-84395426D01*
X58625900Y-84444401D01*
X58654898Y-84468199D01*
X59765699Y-85579000D01*
X59715061Y-85579000D01*
X59515102Y-85618774D01*
X59326744Y-85696795D01*
X59157226Y-85810063D01*
X59013063Y-85954226D01*
X58899795Y-86123744D01*
X58821774Y-86312102D01*
X58782000Y-86512061D01*
X58782000Y-86715939D01*
X58821774Y-86915898D01*
X58899795Y-87104256D01*
X58996385Y-87248813D01*
X57277000Y-88968199D01*
X57277000Y-88762408D01*
X57223314Y-88492510D01*
X57118005Y-88238273D01*
X56965120Y-88009465D01*
X56770535Y-87814880D01*
X56541727Y-87661995D01*
X56464485Y-87630000D01*
X56541727Y-87598005D01*
X56770535Y-87445120D01*
X56965120Y-87250535D01*
X57118005Y-87021727D01*
X57223314Y-86767490D01*
X57277000Y-86497592D01*
X57277000Y-86222408D01*
X57223314Y-85952510D01*
X57118005Y-85698273D01*
X56965120Y-85469465D01*
X56770535Y-85274880D01*
X56541727Y-85121995D01*
X56464485Y-85090000D01*
X56541727Y-85058005D01*
X56770535Y-84905120D01*
X56965120Y-84710535D01*
X57118005Y-84481727D01*
X57223314Y-84227490D01*
X57277000Y-83957592D01*
X57277000Y-83682408D01*
X57223314Y-83412510D01*
X57118005Y-83158273D01*
X56965120Y-82929465D01*
X56770535Y-82734880D01*
X56541727Y-82581995D01*
X56464485Y-82550000D01*
X56541727Y-82518005D01*
X56770535Y-82365120D01*
X56965120Y-82170535D01*
X57118005Y-81941727D01*
X57223314Y-81687490D01*
X57277000Y-81417592D01*
X57277000Y-81142408D01*
X57223314Y-80872510D01*
X57118005Y-80618273D01*
X56965120Y-80389465D01*
X56770535Y-80194880D01*
X56541727Y-80041995D01*
X56470057Y-80012308D01*
X56483023Y-80007636D01*
X56598980Y-79945656D01*
X56665960Y-79705565D01*
X55880000Y-78919605D01*
X55865858Y-78933748D01*
X55686253Y-78754143D01*
X55700395Y-78740000D01*
X56059605Y-78740000D01*
X56845565Y-79525960D01*
X57085656Y-79458980D01*
X57202756Y-79209952D01*
X57269023Y-78942865D01*
X57281910Y-78667983D01*
X57240922Y-78395867D01*
X57147636Y-78136977D01*
X57085656Y-78021020D01*
X56845565Y-77954040D01*
X56059605Y-78740000D01*
X55700395Y-78740000D01*
X55686253Y-78725858D01*
X55865858Y-78546253D01*
X55880000Y-78560395D01*
X56665960Y-77774435D01*
X56598980Y-77534344D01*
X56463240Y-77470515D01*
X56541727Y-77438005D01*
X56770535Y-77285120D01*
X56965120Y-77090535D01*
X57076397Y-76923998D01*
X58265428Y-78113030D01*
M02*
