M48
; DRILL file {KiCad (5.1.0)-1} date 12/06/2019 13:49:42
; FORMAT={-:-/ absolute / metric / decimal}
; #@! TF.CreationDate,2019-06-12T13:49:42+02:00
; #@! TF.GenerationSoftware,Kicad,Pcbnew,(5.1.0)-1
; #@! TF.FileFunction,Plated,1,2,PTH
FMAT,2
METRIC
T1C0.400
T2C0.762
T3C1.000
T4C1.020
T5C1.520
%
G90
G05
T1
X51.181Y-108.839
X53.467Y-63.246
X59.436Y-59.346
X59.817Y-86.614
X62.23Y-61.246
X63.373Y-61.246
X65.087Y-57.658
X66.421Y-98.298
X72.009Y-57.658
T2
X55.88Y-71.12
X55.88Y-73.66
X55.88Y-76.2
X55.88Y-78.74
X55.88Y-81.28
X55.88Y-83.82
X55.88Y-86.36
X55.88Y-88.9
X55.88Y-91.44
X55.88Y-93.98
X55.88Y-96.52
X55.88Y-99.06
X55.88Y-101.6
X55.88Y-104.14
X55.88Y-106.68
X55.88Y-109.22
X76.2Y-81.28
X76.2Y-83.82
X76.2Y-86.36
X76.2Y-88.9
X76.2Y-91.44
X76.2Y-93.98
X76.2Y-96.52
X76.2Y-99.06
X76.2Y-101.6
X76.2Y-104.14
X76.2Y-106.68
X76.2Y-109.22
X35.052Y-66.04
X37.592Y-66.04
X40.132Y-66.04
X42.672Y-66.04
T4
X79.375Y-80.899
X79.375Y-83.439
X79.375Y-85.979
X79.375Y-88.519
T5
X40.894Y-57.912
X45.974Y-57.912
X51.054Y-57.912
T3
G00X28.925Y-57.547
M15
G01X28.925Y-59.547
M16
G05
G00X30.925Y-63.247
M15
G01X32.925Y-63.247
M16
G05
G00X34.925Y-57.547
M15
G01X34.925Y-59.547
M16
G05
T0
M30
